<svg xmlns="http://www.w3.org/2000/svg" xmlns:xlink="http://www.w3.org/1999/xlink" width="461" height="173.999" viewBox="0 0 461 173.999">
  <defs>
    <linearGradient id="linear-gradient" x1="0.177" y1="1.104" x2="0.927" y2="-0.089" gradientUnits="objectBoundingBox">
      <stop offset="0" stop-color="#223264"/>
      <stop offset="1" stop-color="#223264"/>
    </linearGradient>
  </defs>
  <g id="Grupo_103" data-name="Grupo 103" transform="translate(-403 -4976)">
    <g id="Grupo_71" data-name="Grupo 71" transform="translate(319.727 4137.957)">
      <circle id="Elipse_8" data-name="Elipse 8" cx="5.5" cy="5.5" r="5.5" transform="translate(83.273 929.043)" fill="#fff"/>
      <circle id="Elipse_8-2" data-name="Elipse 8" cx="5.5" cy="5.5" r="5.5" transform="translate(107.273 929.043)" fill="#fff"/>
      <circle id="Elipse_8-3" data-name="Elipse 8" cx="5.5" cy="5.5" r="5.5" transform="translate(131.273 929.043)" fill="#fff"/>
      <circle id="Elipse_8-4" data-name="Elipse 8" cx="5.5" cy="5.5" r="5.5" transform="translate(156.273 929.043)" fill="#fff"/>
      <circle id="Elipse_8-5" data-name="Elipse 8" cx="5.5" cy="5.5" r="5.5" transform="translate(83.273 953.043)" fill="#fff"/>
      <circle id="Elipse_8-6" data-name="Elipse 8" cx="5.5" cy="5.5" r="5.5" transform="translate(107.273 953.043)" fill="#fff"/>
      <circle id="Elipse_8-7" data-name="Elipse 8" cx="5.5" cy="5.5" r="5.5" transform="translate(131.273 953.043)" fill="#fff"/>
      <circle id="Elipse_8-8" data-name="Elipse 8" cx="5.5" cy="5.5" r="5.5" transform="translate(156.273 953.043)" fill="#fff"/>
      <circle id="Elipse_8-9" data-name="Elipse 8" cx="5.5" cy="5.5" r="5.5" transform="translate(83.273 977.043)" fill="#fff"/>
      <circle id="Elipse_8-10" data-name="Elipse 8" cx="5.5" cy="5.5" r="5.5" transform="translate(107.273 977.043)" fill="#fff"/>
      <circle id="Elipse_8-11" data-name="Elipse 8" cx="5.5" cy="5.5" r="5.5" transform="translate(131.273 977.043)" fill="#fff"/>
      <circle id="Elipse_8-12" data-name="Elipse 8" cx="5.5" cy="5.5" r="5.5" transform="translate(156.273 977.043)" fill="#fff"/>
      <circle id="Elipse_8-13" data-name="Elipse 8" cx="5.5" cy="5.5" r="5.5" transform="translate(83.273 1001.043)" fill="#fff"/>
      <circle id="Elipse_8-14" data-name="Elipse 8" cx="5.5" cy="5.5" r="5.5" transform="translate(107.273 1001.043)" fill="#fff"/>
      <circle id="Elipse_8-15" data-name="Elipse 8" cx="5.5" cy="5.5" r="5.5" transform="translate(131.273 1001.043)" fill="#fff"/>
      <circle id="Elipse_8-16" data-name="Elipse 8" cx="5.5" cy="5.5" r="5.5" transform="translate(156.273 1001.043)" fill="#fff"/>
    </g>
    <g id="Grupo_79" data-name="Grupo 79">
      <path id="Rectángulo_34" data-name="Rectángulo 34" d="M15,0H371a15,15,0,0,1,15,15V96a0,0,0,0,1,0,0H15A15,15,0,0,1,0,81V15A15,15,0,0,1,15,0Z" transform="translate(446 5008)" fill="url(#linear-gradient)"/>
      <text id="Vancouver_105-A_Col._Vista_Hermosa_Monterrey_Nuevo_León_México_CP._64620" data-name="Vancouver 105-A, Col. Vista Hermosa,
Monterrey, Nuevo León, México, CP. 64620" transform="translate(503.282 5054)" fill="#fff" font-size="14" font-family="Poppins-Medium, Poppins" font-weight="500"><tspan x="0" y="0">Vancouver 105-A, Col. Vista Hermosa,</tspan><tspan x="0" y="18">Monterrey, Nuevo León, México, CP. 64620</tspan></text>
      <g id="Icon_feather-map-pin" data-name="Icon feather-map-pin" transform="translate(467.727 5037.5)">
        <path id="Trazado_100" data-name="Trazado 100" d="M20.045,9.273c0,6.045-7.773,11.227-7.773,11.227S4.5,15.318,4.5,9.273a7.773,7.773,0,0,1,15.545,0Z" fill="none" stroke="#fac306" stroke-linecap="round" stroke-linejoin="round" stroke-width="2"/>
        <path id="Trazado_101" data-name="Trazado 101" d="M18.682,13.091A2.591,2.591,0,1,1,16.091,10.5a2.591,2.591,0,0,1,2.591,2.591Z" transform="translate(-3.818 -3.818)" fill="none" stroke="#fac306" stroke-linecap="round" stroke-linejoin="round" stroke-width="2"/>
      </g>
    </g>
    <g id="Grupo_88" data-name="Grupo 88" transform="translate(717.727 4047.376)">
      <ellipse id="Elipse_8-17" data-name="Elipse 8" cx="4" cy="4.5" rx="4" ry="4.5" transform="translate(83.273 928.624)" fill="#fac306"/>
      <ellipse id="Elipse_8-18" data-name="Elipse 8" cx="4" cy="4.5" rx="4" ry="4.5" transform="translate(101.273 928.624)" fill="#fac306"/>
      <ellipse id="Elipse_8-19" data-name="Elipse 8" cx="4" cy="4.5" rx="4" ry="4.5" transform="translate(119.273 928.624)" fill="#fac306"/>
      <ellipse id="Elipse_8-20" data-name="Elipse 8" cx="4" cy="4.5" rx="4" ry="4.5" transform="translate(138.273 928.624)" fill="#fac306"/>
      <circle id="Elipse_8-21" data-name="Elipse 8" cx="4" cy="4" r="4" transform="translate(83.273 947.624)" fill="#fac306"/>
      <circle id="Elipse_8-22" data-name="Elipse 8" cx="4" cy="4" r="4" transform="translate(101.273 947.624)" fill="#fac306"/>
      <circle id="Elipse_8-23" data-name="Elipse 8" cx="4" cy="4" r="4" transform="translate(119.273 947.624)" fill="#fac306"/>
      <circle id="Elipse_8-24" data-name="Elipse 8" cx="4" cy="4" r="4" transform="translate(138.273 947.624)" fill="#fac306"/>
      <circle id="Elipse_8-25" data-name="Elipse 8" cx="4" cy="4" r="4" transform="translate(83.273 965.624)" fill="#fac306"/>
      <circle id="Elipse_8-26" data-name="Elipse 8" cx="4" cy="4" r="4" transform="translate(101.273 965.624)" fill="#fac306"/>
      <circle id="Elipse_8-27" data-name="Elipse 8" cx="4" cy="4" r="4" transform="translate(119.273 965.624)" fill="#fac306"/>
      <circle id="Elipse_8-28" data-name="Elipse 8" cx="4" cy="4" r="4" transform="translate(138.273 965.624)" fill="#fac306"/>
      <circle id="Elipse_8-29" data-name="Elipse 8" cx="4" cy="4" r="4" transform="translate(83.273 983.623)" fill="#fac306"/>
      <circle id="Elipse_8-30" data-name="Elipse 8" cx="4" cy="4" r="4" transform="translate(101.273 983.623)" fill="#fac306"/>
      <circle id="Elipse_8-31" data-name="Elipse 8" cx="4" cy="4" r="4" transform="translate(119.273 983.623)" fill="#fac306"/>
      <circle id="Elipse_8-32" data-name="Elipse 8" cx="4" cy="4" r="4" transform="translate(138.273 983.623)" fill="#fac306"/>
    </g>
  </g>
</svg>
