<svg xmlns="http://www.w3.org/2000/svg" width="105" height="103" viewBox="0 0 105 103">
  <g id="dots-yellow" transform="translate(-83 -928.978)">
    <circle id="Elipse_8" data-name="Elipse 8" cx="7" cy="7" r="7" transform="translate(83 928.978)" fill="#fac306"/>
    <circle id="Elipse_8-2" data-name="Elipse 8" cx="7" cy="7" r="7" transform="translate(113 928.978)" fill="#fac306"/>
    <circle id="Elipse_8-3" data-name="Elipse 8" cx="7" cy="7" r="7" transform="translate(143 928.978)" fill="#fac306"/>
    <circle id="Elipse_8-4" data-name="Elipse 8" cx="7" cy="7" r="7" transform="translate(174 928.978)" fill="#fac306"/>
    <ellipse id="Elipse_8-5" data-name="Elipse 8" cx="7" cy="6.5" rx="7" ry="6.5" transform="translate(83 958.978)" fill="#fac306"/>
    <ellipse id="Elipse_8-6" data-name="Elipse 8" cx="7" cy="6.5" rx="7" ry="6.5" transform="translate(113 958.978)" fill="#fac306"/>
    <ellipse id="Elipse_8-7" data-name="Elipse 8" cx="7" cy="6.5" rx="7" ry="6.5" transform="translate(143 958.978)" fill="#fac306"/>
    <ellipse id="Elipse_8-8" data-name="Elipse 8" cx="7" cy="6.5" rx="7" ry="6.5" transform="translate(174 958.978)" fill="#fac306"/>
    <ellipse id="Elipse_8-9" data-name="Elipse 8" cx="7" cy="6.5" rx="7" ry="6.5" transform="translate(83 988.978)" fill="#fac306"/>
    <ellipse id="Elipse_8-10" data-name="Elipse 8" cx="7" cy="6.5" rx="7" ry="6.5" transform="translate(113 988.978)" fill="#fac306"/>
    <ellipse id="Elipse_8-11" data-name="Elipse 8" cx="7" cy="6.5" rx="7" ry="6.5" transform="translate(143 988.978)" fill="#fac306"/>
    <ellipse id="Elipse_8-12" data-name="Elipse 8" cx="7" cy="6.5" rx="7" ry="6.5" transform="translate(174 988.978)" fill="#fac306"/>
    <circle id="Elipse_8-13" data-name="Elipse 8" cx="7" cy="7" r="7" transform="translate(83 1017.978)" fill="#fac306"/>
    <circle id="Elipse_8-14" data-name="Elipse 8" cx="7" cy="7" r="7" transform="translate(113 1017.978)" fill="#fac306"/>
    <circle id="Elipse_8-15" data-name="Elipse 8" cx="7" cy="7" r="7" transform="translate(143 1017.978)" fill="#fac306"/>
    <circle id="Elipse_8-16" data-name="Elipse 8" cx="7" cy="7" r="7" transform="translate(174 1017.978)" fill="#fac306"/>
  </g>
</svg>
