<?xml version="1.0" encoding="utf-8"?>
<!-- Generator: Adobe Illustrator 26.5.0, SVG Export Plug-In . SVG Version: 6.00 Build 0)  -->
<svg version="1.1" id="Capa_1" xmlns="http://www.w3.org/2000/svg" xmlns:xlink="http://www.w3.org/1999/xlink" x="0px" y="0px"
	 viewBox="0 0 598 598" style="enable-background:new 0 0 598 598;" xml:space="preserve">
<style type="text/css">
	.st0{fill:#FFFFFF;}
</style>
<g>
	<path class="st0" d="M304,573.8c-12.7-1.2-26.5-1.3-40.2-3.9c-11.8-2.2-23.6-4.5-35-8.1c-9-2.8-17.8-6.3-26.6-9.9
		c-7-2.9-13.7-6.3-20.5-9.4c-12.3-5.8-23.3-13.6-33.7-22.2c-7.2-6-14.2-12-21-18.5c-7.3-7-14-14.6-20.3-22.5
		c-4.6-5.8-8.9-11.7-12.5-18.2c-1.8-3.2-3.1-6.7-3.8-10.3c-1.8-9,5.7-16,12.2-18.5c8.2-3.1,15.2-1.1,21.8,4.5
		c5.8,4.8,9.6,11.2,14.4,16.7c6.9,8,13.6,16.1,21.5,23.1c4.8,4.3,9.7,8.6,14.9,12.6c11.5,8.8,23.9,16.1,37,22.5
		c9.3,4.5,19.1,7.4,28.7,10.8c7.1,2.5,14.6,3.8,22.1,5.2c16.2,2.9,32.4,5,48.9,4.6c9-0.3,18-1.7,26.9-2.8c6.5-0.8,12.7-2.6,19.1-3.8
		c4.7-0.9,9.3-2.8,13.9-4.3c10.4-3.4,20.3-8,29.9-13c7.4-3.9,14.6-8.4,21.4-13.4c10.1-7.2,19.7-15,28.7-23.5
		c6.9-6.5,13.2-13.5,19.6-20.4c4-4.4,8.7-8,15.2-8.5c9.1-0.7,14.8,4.3,19.2,11.1c4.9,7.5,3.4,14.9-1.8,21.6
		c-7.5,9.6-15.9,18.4-24.4,27.1c-11.6,11.8-24.5,21.9-38.4,30.8c-6.2,3.9-12.5,7.7-19.3,10.6c-4,1.7-7.7,4.3-11.8,5.9
		c-9.7,3.7-19.1,8.3-29.2,10.9c-5.1,1.3-10.1,3.2-15.1,4.7c-5.9,1.7-12,2.7-18,4C333.6,572.3,319.3,572.9,304,573.8z M304.8,560
		c5-0.4,12,0.4,18.9-0.8c6.2-1,12.7-0.9,18.7-2.4c10.8-2.8,21.9-4.4,32.4-8c7.5-2.6,15.2-4.9,22.5-7.9c9.3-3.8,18.3-8.1,27.1-13.2
		c10.4-6,20.2-12.7,29.4-20.3c5.6-4.6,11-9.4,16.1-14.6c7.7-8,15-16.3,21.8-25c2.1-2.8,1.8-5.2-0.6-7.5c-2.3-2.2-4.7-2.3-7.4-0.6
		c-5.3,3.5-9.3,8.4-13.6,13.1c-10.2,11.1-21.5,21-33.9,29.6c-14.6,10.1-29.9,18.8-46.1,26c-11.9,5.2-24.3,8.7-36.8,12
		c-13,3.4-26.3,4.5-39.7,5c-15.5,0.5-30.8-0.2-46.2-2.8c-7-1.2-14-2.6-20.9-4.4c-8.8-2.3-17.6-4.8-26.1-8.2c-9.9-4-19.7-8.1-29-13.5
		c-8.5-4.9-16.8-10.2-24.5-16.2c-18.2-14.1-34.1-30.5-47-49.6c-2.5-3.7-5.7-6.3-9-4.6c-5.8,3.1-7.4,6.8-3.4,12.3
		c3.1,4.4,6.3,8.8,10,12.8c8,8.9,15.7,18,24.6,26c9.6,8.6,19.7,16.6,30.8,23.3c7.2,4.3,14.5,8.7,22,12.4c7.8,3.8,15.7,7.7,23.9,10.7
		c6.4,2.4,12.8,5.3,19.4,6.9c10.2,2.5,20.2,5.6,30.7,7C280.1,558.9,291.4,560.5,304.8,560z"/>
	<path class="st0" d="M49.9,318.7c0-15.1,1.5-30,4.2-44.8c2.1-11.6,4.7-23.1,8.6-34.3c6.8-19.6,15.5-38.3,26.8-55.8
		c6.5-10,13.5-19.7,21.1-28.8c7.1-8.4,14.6-16.4,22.7-23.8c9.1-8.5,18.8-16.3,29.3-23c6.9-4.4,13.8-9,21.1-12.7
		c7.3-3.6,14.4-7.6,22.2-10.4c6.4-2.3,12.6-5,19-7.1c6.3-2.1,12.9-3.5,19.4-5.1c4-1,7.9-2.3,12-2.8c10.3-1.1,20.5-3.8,31-3.2
		c8.1,0.5,15.3,5,16.9,12.3c2.8,12.7-1.4,20.7-14.4,24.4c-11.6,3.3-23.7,3.8-35.4,6.5c-9,2.1-17.7,5.3-26.5,8.2
		c-9,3.1-17.5,7.3-25.8,11.8c-7.4,4-14.6,8.4-21.4,13.4c-10,7.3-19.1,15.5-27.8,24.3c-7.3,7.4-14,15.4-20.3,23.7
		c-6.2,8.2-11.9,16.8-16.9,25.8c-7.5,13.7-13.8,28-18.1,43.2c-3.5,12.2-5.8,24.5-7.3,36.9c-0.9,7.3,0,14.8-0.3,22.2
		c-0.6,12,1.4,23.7,3.2,35.4c1.1,7.2,3.6,14.2,5.1,21.4c1.8,8.5,4.8,16.6,7.8,24.7c3.7,10.2-5.2,22.2-13.5,24.1
		c-12.9,3.1-21.5-4.9-24.8-15.4c-2-6.3-4.3-12.4-6.5-18.6c-2.1-5.6-3.1-11.5-4.5-17.3c-2.6-11.1-4.1-22.4-5.5-33.6
		C50.1,333.1,50.2,325.9,49.9,318.7z M61.7,314.9c0.2,11.2-0.2,19.6,1.3,28.1c1.2,6.3,1.3,12.8,2.6,19c2,9.5,4.6,18.9,7.4,28.2
		c1.9,6.4,3.8,12.8,7.1,18.7c2.2,3.9,5,5.2,8.2,4.1c4.2-1.4,5.9-4.1,5.7-8.3c-0.1-1.8-0.4-3.4-1-5.1c-2.8-8.7-5.9-17.4-8.2-26.3
		c-3.8-14.6-5.7-29.6-6.5-44.7c-0.7-12.3-0.1-24.6,1.4-36.8c1.6-12.2,3.5-24.2,7-35.9c4-13.8,9.2-27.1,15.8-39.9
		c7.6-14.6,16.5-28.4,27.1-41.1c14.6-17.6,31.3-32.7,50.4-45.1c11.8-7.6,24.2-14.3,37.4-19.5c11.3-4.5,22.9-8.2,34.8-11
		c10-2.3,20-5.1,30.5-4.9c2,0,4.1-0.6,5.9-1.6c2.7-1.5,4.5-3.4,4.5-6.9c0.1-3.2-1.6-5-3.9-6.6c-3.1-2.1-6.5-2.1-10-1.5
		c-5.6,1-11.1,2.2-16.7,2.9c-7.8,1-15.3,3.6-23.1,5.1c-4.2,0.8-8.4,2.6-12.5,4c-5,1.7-10.2,3.2-15,5.2c-9.7,4.1-19.4,8.3-28.5,13.7
		c-12,7-23.4,14.8-34,23.7c-11.3,9.5-21.6,20-30.8,31.6c-11.7,14.8-21.7,30.5-30.1,47.4c-5.3,10.5-10.3,21.3-13.9,32.4
		c-4.1,12.7-8.4,25.3-9.9,38.8C63.4,294.2,61,305.8,61.7,314.9z"/>
	<path class="st0" d="M555.2,314.8c0,8.4,0.1,16.8,0,25.2c-0.1,4.1-0.8,8.3-1.6,12.3c-1.3,6-1.3,12.3-2.9,18.2
		c-2,7-3.7,14.1-5.7,21.1c-2.4,8.8-5.8,17.1-9.1,25.5c-2.5,6.4-5.6,12.6-10.9,17.4c-6.9,6.3-14.9,4.9-21.5,0.6
		c-9.2-6.1-9-19.3-5-27.4c3.3-6.7,5.4-13.8,8.1-20.7c3.9-9.7,6-19.9,7.5-30.1c1.5-10.4,3.8-20.6,3.9-31.3
		c0.1-15.2-0.7-30.3-3.5-45.2c-3.9-20.9-10.3-41.1-20.1-60c-5.8-11.2-12.1-22.2-19.8-32.3c-5.2-6.8-10.9-13.2-16.8-19.4
		c-4.6-4.8-9.5-9.3-14.4-13.5c-9.2-7.9-18.9-15-29.4-21.2c-8.6-5.1-17.4-9.7-26.6-13.3c-9.4-3.7-18.9-7.1-28.8-9.5
		c-5.5-1.4-11.1-2.9-16.6-4.1c-5.1-1.1-10.1-2.2-14.8-4.6c-10.4-5.2-13.4-20.8-3.5-29.5c5.6-4.9,11.9-4.7,18.6-3.9
		c8.7,1,17.1,3.1,25.4,5.3c10.5,2.8,20.8,5.9,30.9,10.2c9,3.9,17.9,7.8,26.4,12.8c10.5,6.2,20.2,13.6,30.1,20.6
		c10.8,7.7,20.8,16.3,30.1,25.7c9.9,10,18.7,20.7,26.7,32.3c5,7.2,9.7,14.6,13.8,22.3c4.1,7.8,8.2,15.6,11.2,23.9
		c2,5.3,4.5,10.5,6.2,15.9c2.3,7.3,3.8,14.9,6.1,22.2c2.3,7.5,2.6,15.3,4.2,22.9c1.1,5.2,1.3,10.6,1.8,15.8
		C555.7,304.4,556.4,309.6,555.2,314.8z M546.1,319c0.2-17.1-1.6-33.4-5-49.7c-2.4-11.7-7.1-22.7-10.3-34.1
		c-2.7-9.8-7.5-18.8-12.2-27.8c-4-7.5-8.4-14.8-13.1-21.9c-6.7-10.2-14.1-19.8-22.2-28.8c-15.6-17.3-33.6-32-53.3-44.5
		c-5.2-3.3-10.2-7-15.8-9.6c-7.7-3.5-15.3-7.4-23.3-10.3c-4.7-1.8-9.5-3.5-14.3-5c-4.8-1.4-9.6-2.5-14.4-3.7
		c-7.2-1.9-14.4-3.7-21.9-4.1c-5.7-0.3-9,0.8-10.8,7.3c-0.8,3,0.6,6.8,3.5,7.7c3.8,1.2,7.7,2.8,11.6,3.1c9.6,0.8,18.6,4,27.7,6.8
		c11.9,3.7,23.3,8.6,34.6,14.1c12.8,6.3,24.5,14,35.8,22.5c5,3.8,9.4,8.3,14.3,12.2c4.2,3.3,7.7,7.3,11.2,11.2
		c6.8,7.5,13.1,15.5,18.8,23.9c8.3,12.1,15.2,24.9,21.3,38.2c3.2,7,6.1,14.2,9,21.4c1.7,4.3,3.7,8.7,4.4,13.2
		c0.9,5.5,2.1,10.8,3.4,16.2c3.1,12.7,3.1,25.6,4.1,38.4c0.8,10.3-1.1,20.4-1.5,30.7c-0.2,5.1-1.3,10.3-2.3,15.4
		c-0.9,4.3-2.6,8.5-3.6,12.8c-1.9,7.5-4.4,14.9-7.2,22.1c-2.4,6.1-5.1,12.1-7,18.3c-1.8,6-1,8.2,4.6,11.3c4.1,2.3,7.8,1.4,9.9-2.7
		c3-6.2,6-12.4,8.4-18.9c3.8-10.2,7-20.5,9.7-31.1c2.5-9.8,3.6-19.8,5.2-29.7C546.4,335.4,545.9,326.9,546.1,319z"/>
	<g>
		<path class="st0" d="M108.4,318c0.3-8.6,0.6-17.1,1.8-25.7c1.2-8.7,3.2-17.2,5.2-25.8c1-4.2,2.7-8.3,4.1-12.4
			c1.6-4.5,3.2-8.9,5.1-13.2c3.9-8.9,8.5-17.4,13.7-25.6c5.7-9.1,12-17.8,19.1-25.9c6.7-7.6,13.9-14.6,21.7-21.1
			c13.2-11.1,27.7-20.3,43.3-27.7c8.2-3.9,16.7-7,25.4-9.5c9.8-2.8,19.8-4.3,29.8-5.9c13.6-2.2,27.1-2.3,40.7-1
			c7.3,0.7,14.5,2.2,21.8,3.4c10.1,1.7,19.5,5.4,29.2,8.3c6.6,2,12.8,5.1,19,8.2c10.1,5,19.5,11,28.8,17.4
			c12.4,8.5,23.5,18.6,33.6,29.6c10.3,11.3,19.2,23.8,26.4,37.3c5.7,10.7,10.3,21.7,13.9,33.3c3,9.6,4.5,19.4,6.4,29.1
			c2.3,11.5,2.3,22.9,2.1,34.4c-0.1,5.7-1.1,11.4-1.9,17.1c-0.7,5.3-1.9,10.6-2.1,16c-0.2,4.7-1.9,9.3-3.4,13.9
			c-2.2,6.7-4.4,13.5-7.2,20c-2.3,5.2-4.9,10.3-7.5,15.3c-3,5.9-6.4,11.7-9.9,17.3c-4.1,6.6-8.6,13-13.4,19.1
			c-6.4,8.2-13.5,15.5-21,22.5c-10.1,9.5-21.5,17.4-33.5,24.3c-7.8,4.5-15.9,8.6-24.6,11.4c-4.6,1.5-9,3.6-13.7,4.9
			c-6.3,1.8-12.9,3-19.3,4.5c-9.6,2.2-19.3,2.5-29.1,3.4c-6.4,0.6-12.6-0.2-18.9-0.4c-12-0.3-23.7-2.8-35.3-5.3
			c-7.3-1.6-14.4-4.5-21.5-6.9c-8.7-3-16.9-6.9-25-11.1c-7.9-4-15.4-8.6-22.6-13.7c-8.2-5.8-15.8-12.2-22.8-19.4
			c-4.5-4.7-8.9-9.4-13.1-14.5c-6.3-7.5-11.7-15.6-16.8-23.9c-4.7-7.7-9.1-15.7-12.2-24.2c-2.7-7.1-5.7-14.1-7.7-21.5
			c-2.1-8.2-4.2-16.4-5.6-24.7C109.2,339.1,108.3,328.6,108.4,318z M303.6,451.9c4.9,0,9.8-0.8,14.6-1.1c12.9-0.9,25-4.6,36.9-9.3
			c11.1-4.4,21.4-10.2,30.8-17.4c14.1-10.8,26-23.8,35.4-39c8.3-13.5,13.9-28,16.4-43.7c2.5-15.5,1.8-31.1-0.7-46.5
			c-1.4-8.9-4.7-17.5-7.8-26c-2.7-7.4-6.4-14.3-10.4-21c-6.3-10.3-13.8-19.8-22.7-28.2c-8.3-7.9-17.5-14.4-27.5-19.9
			c-7.7-4.3-15.8-7.6-24.3-10.4c-8.1-2.6-16.4-4.2-24.7-5.1c-12.1-1.3-24.2-0.9-36.4,0.9c-12.9,1.9-25.1,5.7-36.8,11.2
			c-17.7,8.3-32.9,20.2-45.3,35.2c-8.5,10.2-15.8,21.4-21.2,33.7c-6,13.6-9.7,27.7-10.9,42.4c-1.4,16.7,0.5,33.1,5.2,49.2
			c2.1,7.2,5,14.3,8.4,20.9c4.2,8.1,9.4,15.8,15.1,23.1c7.5,9.4,16.2,17.5,25.9,24.6c9.4,6.9,19.5,12.6,30.5,16.7
			c6.4,2.4,12.7,5,19.4,6.2C283.5,450.4,293.5,451.9,303.6,451.9z"/>
		<path class="st0" d="M16.2,307.2c4.3-0.7,6.4,1.7,6.8,7.1c1,13,0.9,26.2,2.2,39.1c0.9,8.9,2.4,17.8,4.6,26.5
			c2.2,8.8,4.1,17.6,7,26.2c3.3,9.6,6.8,19,10.8,28.3c4.2,9.6,9,18.9,14.1,27.9c5.2,9.1,11.1,17.8,17.5,26.1
			c10,13.1,21,25.3,33.4,36.1c8.1,7.1,16.4,14,25.4,20.1c5.7,3.9,10.9,8.5,16.2,13c3,2.6,3.5,5.2,2.1,8c-2.3,4.3-4,4.9-8.7,3.5
			c-4.2-1.2-7.7-3.8-11.2-6.3c-19.5-13.7-37.6-29.2-53.4-47c-10.2-11.4-19.5-23.5-27.8-36.5c-4.7-7.4-9.3-14.9-13.3-22.7
			c-4.9-9.3-9.2-19-13.1-28.8c-2.6-6.5-4.6-13.1-6.7-19.7c-3.1-9.5-5.7-19.2-7-29.2c-0.6-4.6-2-9.1-2.7-13.7
			c-1.4-8.8-2.2-17.6-3.8-26.4c-1.4-8-0.4-15.8,0.1-23.7C9.1,310,11.7,307.3,16.2,307.2z"/>
		<path class="st0" d="M582.1,308.8c-4.3-0.8-6.4,1.7-6.9,7c-1.1,13-1.2,26.1-2.7,39.1c-1,8.9-2.6,17.8-4.9,26.5
			c-2.3,8.7-4.3,17.6-7.3,26.1c-3.4,9.5-7,18.9-11.2,28.2c-4.3,9.6-9.2,18.7-14.5,27.8c-5.3,9.1-11.3,17.7-17.8,25.9
			c-10.2,13-21.3,25-33.8,35.7c-8.2,7-16.6,13.8-25.7,19.8c-5.8,3.8-11,8.4-16.4,12.8c-3.1,2.5-3.6,5.2-2.1,7.9
			c2.3,4.3,4,4.9,8.7,3.6c4.3-1.2,7.7-3.7,11.3-6.1c19.7-13.5,37.9-28.7,54-46.4c10.3-11.3,19.8-23.3,28.2-36.1
			c4.8-7.3,9.4-14.8,13.6-22.5c5-9.3,9.4-18.9,13.4-28.7c2.6-6.5,4.7-13.1,6.9-19.7c3.2-9.5,5.9-19.2,7.3-29.1
			c0.7-4.6,2.1-9.1,2.9-13.7c1.5-8.8,2.4-17.6,4.1-26.3c1.5-7.9,0.6-15.8,0.2-23.7C589.2,311.7,586.6,308.9,582.1,308.8z"/>
		<path class="st0" d="M157.8,71.7c1.4,4.2,4.5,4.8,9.4,2.7c12-5.3,23.5-11.5,35.6-16.4c8.3-3.4,16.8-6.3,25.6-8.4
			c8.8-2.2,17.5-4.7,26.4-6.1c10-1.6,20-3,30.1-3.7c10.5-0.8,20.9-0.9,31.3-0.6c10.5,0.3,20.9,1.5,31.3,3.2
			c16.2,2.7,32.2,6.7,47.5,12.5c10.1,3.9,20.1,7.9,29.7,13c6.1,3.3,12.7,5.6,19.1,8.2c3.7,1.5,6.3,0.7,8-1.9c2.7-4.1,2.4-5.9-1-9.4
			c-3.1-3.2-7-5-10.8-7c-21.3-10.8-43.4-19.5-66.6-25.1c-14.8-3.6-29.9-6.2-45.2-7.4c-8.8-0.7-17.5-1.2-26.3-1.1
			c-10.5,0.1-21.1,0.8-31.6,2c-6.9,0.8-13.7,2.1-20.6,3.4c-9.9,1.7-19.6,4-29.1,7.6c-4.4,1.6-9,2.5-13.4,4c-8.4,2.9-16.6,6.3-25,9.1
			c-7.7,2.5-14.2,7.1-20.9,11.2C156.9,64.1,155.7,67.7,157.8,71.7z"/>
	</g>
</g>
</svg>
