<?xml version="1.0" encoding="UTF-8"?>
<svg id="Capa_2" data-name="Capa 2" xmlns="http://www.w3.org/2000/svg" viewBox="0 0 1070 1070">
  <defs>
    <style>
      .cls-1 {
        fill: #555;
      }

      .cls-2 {
        fill: #4c4c4c;
      }

      .cls-3 {
        fill: #4a4a4a;
      }

      .cls-4 {
        fill: #959595;
      }

      .cls-5 {
        fill: #787878;
      }

      .cls-6 {
        fill: #6f6f6f;
      }

      .cls-7 {
        fill: none;
      }

      .cls-8 {
        fill: #6e6e6e;
      }
      .pth-1 {
        fill: #223264;
      }
    </style>
  </defs>
  <g id="Capa_1-2" data-name="Capa 1">
    <path class="cls-2" d="M217.88,485.37c1.43,.9,1.23,2.27,1.05,3.63-.38,.46-.73,.43-1.05-.07v-3.56Z"/>
    <path class="cls-4" d="M217.88,455.7c1.5,.27,1.12,1.34,.99,2.31-.29,.61-.63,.6-.99,.06v-2.37Z"/>
    <path class="cls-6" d="M217.88,458.08c.33-.04,.66-.07,.99-.06,.23,1.04,.26,2-.99,2.44v-2.37Z"/>
    <path class="cls-5" d="M217.88,488.93c.35,0,.7,.02,1.05,.07,.09,.96,.34,2.01-1.05,2.3v-2.37Z"/>
    <g>
      <rect class="cls-7" width="1070" height="1070"/>
      <path class="cls-5" d="M446.85,232.41c-.96,.12-1.98,.37-2.3-1h2.37c.4,.25,.52,.48,.37,.7-.15,.2-.29,.3-.44,.3Z"/>
      <path class="cls-1" d="M446.85,232.41c.04-.33,.06-.67,.07-1h2.37c-.5,1.11-1.41,1.21-2.45,1Z"/>
      <path class="cls-3" d="M475.49,232.39c-1.03,.2-1.95,.11-2.46-.99h2.37c.36,.19,.49,.4,.4,.63-.1,.24-.2,.36-.31,.36Z"/>
      <path class="cls-8" d="M475.49,232.39c-.04-.33-.07-.66-.08-.99h2.37c.37,.2,.5,.42,.39,.65-.11,.24-.22,.36-.33,.36-.78,0-1.57,0-2.35-.01Z"/>
      <path class="cls-4" d="M477.84,232.41c-.05-.33-.07-.67-.06-1h2.37c-.26,1.52-1.34,1.14-2.31,1Z"/>
      <g>
        <path class="pth-1" d="M824.07,759.87c-47.77-47.87-95.56-95.71-143.55-143.35-4.09-4.06-3.91-6.46-1.04-11.07,39.45-63.48,49.93-131.73,26.97-202.72-29.47-91.13-93.07-146.38-186.65-167.06-7.95-1.76-16.22-1.54-23.98-4.25h-2.37c-.71,.78-1.65,.57-2.53,.61-.68,0-1.36,0-2.04,0-.89-.05-1.83,.17-2.54-.61h-23.73c-.66,.73-1.54,.58-2.37,.61-.84-.03-1.72,.12-2.37-.61h-5.93c-.8,.78-1.82,.57-2.78,.61-19.72,.89-38.66,5.58-57.1,12.25-36.84,13.33-68.84,34.04-95.73,62.74-26.01,27.75-44.38,59.79-55.9,95.92-4.99,15.65-7.74,31.71-9.22,48.03v4.75c.73,.66,.58,1.54,.61,2.37-.03,.84,.12,1.72-.61,2.37v24.92c.96,.97,.49,2.2,.61,3.32-.05,.91,.19,1.88-.61,2.61v5.93c1.62,.43,1.17,1.83,1.3,2.9,1.22,10,2.78,19.95,5.04,29.77,37.76,163.45,228.19,240.53,368.75,149.17,3.86-2.51,5.86-2.45,9.2,.91,47.55,47.81,95.26,95.45,142.97,143.1,2.51,2.51,5.12,4.97,7.96,7.07,21.01,15.5,50.79,10.02,65.02-11.87,12.07-18.56,9.26-41.78-7.35-58.42Zm-349.4-72.26c-117.39-.29-212.73-95.74-212.55-212.8,.19-117.28,95.69-212.6,212.85-212.46,117.36,.14,212.57,95.54,212.4,212.82-.17,117.51-95.51,212.73-212.7,212.44Zm325.97,119.77c-5.41,2.81-10.7,2.35-15.62-1.13-1.92-1.36-3.58-3.1-5.26-4.77-46.69-46.67-93.32-93.4-140.15-139.93-3.74-3.72-3.82-5.54,.2-8.85,4.71-3.87,9.15-8.24,12.96-12.99,3.35-4.18,5.14-3.23,8.43,.08,42.51,42.74,85.18,85.33,127.8,127.95,4.89,4.89,9.79,9.78,14.68,14.67,3.19,3.19,5.08,6.98,5.3,11.75-.48,5.71-2.94,10.41-8.34,13.22Z"/>
        <path class="pth-1" d="M551.35,492.93c-7.93-8.38-17.27-14.91-27.35-20.61,38.19-34.84,32.1-87.56,1.99-114.64-30.88-27.77-77.66-26.11-106.34,3.93-27.21,28.51-30.05,78.24,6.36,110.53-1.78,1.04-3.13,1.8-4.45,2.61-33.07,20.31-51.04,49.67-52.82,88.58-.55,12,5.47,18.06,17.37,18.06,59.13,.03,118.27,.03,177.41,0,11.79,0,18.04-6.36,17.54-18.06-1.16-27.12-11-50.65-29.71-70.41Zm-76.58-124.06c25.27-.01,45.75,20.41,45.66,45.53-.09,25.12-20.78,45.6-45.86,45.39-25.05-.2-45.21-20.38-45.26-45.3-.05-25.34,20.15-45.61,45.46-45.62Zm68.41,182.13c-22.91-.33-45.84-.14-68.76-.14-22.92,0-45.84-.08-68.76,.07-4.19,.03-5.38-.53-4.07-5.18,9.06-32.17,38.87-55.28,72.19-55.57,34.15-.29,64.55,22.28,74.06,54.75,1.42,4.83,.72,6.14-4.67,6.07Z"/>
      </g>
    </g>
  </g>
</svg>