<?xml version="1.0" encoding="UTF-8"?>
<svg id="Capa_2" data-name="Capa 2" xmlns="http://www.w3.org/2000/svg" viewBox="0 0 1070 1070">
  <defs>
    <style>
      .cls-1 {
        fill: #020202;
      }

      .cls-2 {
        fill: none;
      }
      .pth-1 {
        fill: #223264;
      }
    </style>
  </defs>
  <g id="Capa_1-2" data-name="Capa 1">
    <g>
      <path class="cls-1 pth-1" d="M623.32,228.81c-3.22-1.22-6.45-2.38-9.66-3.47-24.96-9.13-50.38-13.7-76.15-13.83-.29,0-.6,0-.92,0-.15,0-.3,0-.44,0-.39,0-.79,0-1.22,0h-.04c-.15,0-.3,0-.44,0-.15,0-.3,0-.45,0h-.04c-.08,0-.15,0-.22,0h-.01c-1.18,0-2.22,0-3.13,.02-25.12,.34-49.9,4.91-74.25,13.81-3.22,1.1-6.44,2.25-9.66,3.47-116.26,44.12-172.66,180.79-123.59,295.06,13.22,30.78,33.08,56.57,56.71,79.99,22.76,22.57,35.42,50.34,39.17,82.22,.47,3.97-.25,5.31-4.48,6.15-16.17,3.24-25.59,15.29-25.7,31.94-.04,6.29-.07,12.58,0,18.87,.2,16.37,10.95,29.07,27.12,31.45,3.63,.53,4.93,1.36,5.52,5.21,6.1,39.72,38.9,71.9,78.78,77.3,.12,.02,.25,.03,.37,.05,2.2,.32,4.42,.57,6.66,.73,9.23,.8,18.49,.81,27.75,.64,9.26,.17,18.52,.16,27.75-.64,2.24-.16,4.46-.41,6.66-.73,.12-.02,.25-.03,.37-.05,39.87-5.4,72.68-37.58,78.78-77.3,.59-3.85,1.9-4.67,5.52-5.21,16.18-2.38,26.92-15.08,27.12-31.45,.08-6.29,.05-12.58,0-18.87-.11-16.64-9.54-28.69-25.7-31.94-4.23-.85-4.95-2.19-4.48-6.15,3.74-31.88,16.41-59.65,39.17-82.22,23.63-23.43,43.49-49.21,56.71-79.99,49.07-114.27-7.33-250.94-123.59-295.06Zm-161.77,124.25c-.02,4.11,.86,5.47,5.24,5.4,3.61-.06,7.22-.1,10.83-.13,10.19-.04,20.38,.03,30.57,0,.42,0,.83,0,1.25,0,5.07,.11,11.38,1.61,14.48-.85,3.43-2.72,.7-9.72,1.11-14.82,.07-.86,.07-1.74,0-2.6-.06-.73,.03-1.28,.26-1.67,.77-.4,1.61-.69,2.49-.89,2.32,.06,4.79-.16,7.21-.3,2.42,.14,4.89,.36,7.21,.3,.88,.2,1.72,.49,2.49,.89,.23,.4,.33,.94,.26,1.67-.07,.86-.07,1.74,0,2.6,.41,5.11-2.32,12.11,1.11,14.82,3.1,2.46,9.4,.95,14.48,.85,.42,0,.83,0,1.25,0,10.19,.03,20.38-.04,30.57,0,3.61,.03,7.22,.07,10.83,.13,4.39,.07,5.26-1.29,5.24-5.4-.06-13.63,.04-15.88,9.67-15.86,2.5,.14,5.06,.38,7.46,.29,2.55-.1,2.69,1.31,2.68,3.24-.04,11.71-.17,23.42,.05,35.12,.03,1.49-.27,2.35-.76,2.85-.72,.36-1.68,.5-2.91,.54-.53-.05-1.07-.12-1.56-.12-9.36,.02-18.72,.03-28.08,.04-19.65-.03-39.31,0-58.96,0h-2.07c-19.65,0-39.31-.03-58.96,0-9.36,0-18.72-.01-28.08-.04-.49,0-1.03,.07-1.56,.12-1.23-.03-2.19-.18-2.91-.54-.49-.49-.79-1.36-.76-2.85,.22-11.7,.09-23.41,.05-35.12,0-1.94,.13-3.34,2.68-3.24,2.4,.09,4.96-.15,7.46-.29,9.63-.02,9.73,2.23,9.67,15.86Zm105.76,483.13c-2.28,.34-4.56,.61-6.85,.82-1.51,.1-3.03,.16-4.57,.17-6.96,.04-13.93,.3-20.9,.44-6.97-.15-13.94-.4-20.9-.44-1.53,0-3.06-.07-4.57-.17-2.29-.21-4.57-.48-6.85-.82-.98-.15-1.95-.31-2.92-.5-27.43-5.62-49.23-26.7-56.09-54.95-1.1-4.54-.39-5.86,3.71-6.02,8.65,.07,17.31,.1,25.96,.12,20.55,.06,41.1,0,61.65-.01,20.55,0,41.1,.07,61.65,.01,8.65-.02,17.31-.05,25.96-.12,4.09,.16,4.81,1.48,3.71,6.02-6.85,28.25-28.66,49.33-56.09,54.95-.97,.18-1.94,.35-2.92,.5Zm-32.32-144.67c-19.14,0-38.27-.1-57.41,0-6.3,.02-12.61,.06-18.91,.13-.46,0-.89,0-1.29-.02-3.69-.31-4.13-2.01-3.71-6.1,6.06-58.64,12.01-117.28,17.73-175.96,.41-4.2,1.51-5.41,5.19-5.54,.04,0,.07,0,.11,0,19.43,.08,38.86,.12,58.29,.12,19.43,0,38.86-.04,58.29-.12,.04,0,.07,0,.11,0,3.68,.13,4.78,1.34,5.19,5.54,5.72,58.67,11.67,117.32,17.73,175.96,.42,4.09-.02,5.79-3.71,6.1-.4,.02-.83,.02-1.29,.02-6.3-.06-12.61-.1-18.91-.13-19.13-.09-38.27,0-57.41,0Zm34.52-208.24c-.6,0-1.2,0-1.81,0-10.9,0-21.81,0-32.71,0-10.9,0-21.81,0-32.71,0-.6,0-1.2,0-1.81,0-13.77,0-27.53,0-41.3-.02-2.09-.01-4.18-.02-6.28-.03-6.65-.06-11.02-4.34-11.1-10.23-.08-5.9,4.3-10.15,10.85-10.51,.4-.02,.8-.03,1.2-.03,.35,0,.71,.02,1.05,.02,26.7,0,53.4,0,80.09,0,26.7,0,53.4,0,80.09,0,.35,0,.7,0,1.05-.02,.4,0,.8,0,1.2,.03,6.55,.36,10.93,4.61,10.85,10.51-.08,5.89-4.46,10.18-11.1,10.23-2.09,.02-4.18,.02-6.28,.03-13.77,.01-27.53,.02-41.3,.02Zm51.88-82.47c-6.53,13.03-12.81,25.4-18.89,37.85-1.14,2.34-2.54,3.01-5,3.01-17.93-.03-35.86-.03-53.79-.04-2.91,0-5.82,0-8.73,0s-5.82,0-8.73,0c-17.93,0-35.86,.01-53.79,.04-2.46,0-3.86-.67-5-3.01-6.08-12.46-12.35-24.82-18.89-37.85,6.78-.54,46.57-.91,86.4-1.02,39.83,.1,79.62,.48,86.4,1.02Zm-86.62,311.55c.07,0,.15,0,.22,0s.15,0,.22,0c23.13,0,46.26,0,69.4,0,14.03,0,28.07,0,42.1,.02,9.48,.22,12.7,3.74,12.75,13.52,.02,4.77,.02,9.54,0,14.3-.04,10.48-3.42,13.8-14.13,13.8-36.78,0-73.56,0-110.34,0-36.78,0-73.56,0-110.34,0-10.71,0-14.09-3.32-14.13-13.8-.02-4.77-.02-9.54,0-14.3,.05-9.78,3.27-13.29,12.75-13.52,14.03-.02,28.07-.02,42.1-.02,23.13,0,46.26,0,69.4,0Zm206.62-245.83c-4.44,29.3-14.39,55.78-29.72,79.5h-.92c-6.87,10.67-14.86,20.81-23.97,30.24-17.73,18.33-34.84,36.85-44.78,60.78-2.19,5.27-4.24,10.6-6.35,15.9-1.28-1.25-1.18-2.76-1.33-4.23-4.66-46.36-9.32-92.73-14.07-139.08-.37-3.65-.06-5.5,4.39-6.41,14.38-2.94,24.15-14.05,25.26-27.62,1.16-14.13-6.76-26.97-20.59-31.93-4.49-1.61-3.7-3.08-2.1-6.2,2.86-5.6,5.67-11.22,8.48-16.84,3.69-6.37,7.24-12.78,9.71-19.38,.83-1.64,1.65-3.29,2.48-4.93,1.41-2.77,2.18-5.49,2.16-8.64-.03-6.63-.05-13.26-.07-19.89,0-.84,0-1.68,0-2.52-.03-14.44-.02-28.87,.12-43.3,.04-4.13-.87-5.49-5.25-5.39-2.63,.06-5.26,.09-7.89,.11-.48,0-.98,0-1.5,0-4.22,0-8.44,0-12.66,.02-4.88-.01-9.76-.03-14.64,0-1.75,0-3.5,0-5.25,0-4.35-.25-9.33-1.49-12.68-.08-2.92,.14-4.19,1.22-3.62,4.59,.07,.42,.04,.87,0,1.3-.38,4.89,2.19,12.34-1.05,14.1-4.06,2.2-9.9,1.08-15.25,.93-3.42-1.45-3.48-5.62-3.59-15.62,0-.22-.03-.44,0-.65,.58-3.43-.69-4.58-3.9-4.66-3.7-1.21-9.39,.11-13.96,.1-4.61-.01-9.23,0-13.84,0-4.61,0-9.23-.02-13.84,0-4.57,.01-10.26-1.3-13.96-.1-3.21,.08-4.48,1.23-3.9,4.66,.04,.21,0,.43,0,.65-.12,10.01-.17,14.17-3.59,15.62-5.35,.15-11.19,1.27-15.25-.93-3.23-1.75-.67-9.21-1.05-14.1-.03-.43-.07-.88,0-1.3,.57-3.37-.7-4.45-3.62-4.59-3.35-1.41-8.33-.17-12.68,.08-1.75,0-3.5,0-5.25,0-4.88-.03-9.76-.02-14.64,0-4.22,0-8.44-.02-12.66-.02-.52,0-1.02,0-1.5,0-2.63-.02-5.26-.05-7.89-.11-4.38-.1-5.29,1.26-5.25,5.39,.13,14.43,.15,28.87,.12,43.3,0,.84,0,1.68,0,2.52-.02,6.63-.04,13.26-.07,19.89-.01,3.15,.75,5.86,2.16,8.64,.83,1.64,1.66,3.28,2.48,4.93,2.47,6.61,6.01,13.01,9.71,19.38,2.81,5.62,5.62,11.24,8.48,16.84,1.59,3.12,2.39,4.59-2.1,6.2-13.83,4.96-21.75,17.8-20.59,31.93,1.11,13.58,10.87,24.68,25.26,27.62,4.45,.91,4.76,2.76,4.39,6.41-4.75,46.35-9.41,92.72-14.07,139.08-.15,1.47-.05,2.98-1.33,4.23-2.11-5.31-4.16-10.63-6.35-15.9-9.95-23.93-27.05-42.45-44.78-60.78-9.11-9.42-17.1-19.56-23.97-30.24h-.92c-15.33-23.72-25.28-50.2-29.72-79.5-10.62-70.09,16.38-139.51,69.21-184.54v.57c39.26-33.65,88.41-49.07,136.11-49.46,.36,0,.71,0,1.07,0,.36,0,.71,0,1.07,0,47.7,.4,96.85,15.81,136.11,49.46v-.57c52.83,45.04,79.84,114.45,69.21,184.54Z"/>
      <rect class="cls-2" width="1070" height="1070"/>
    </g>
  </g>
</svg>