<?xml version="1.0" encoding="UTF-8"?>
<svg id="Capa_2" data-name="Capa 2" xmlns="http://www.w3.org/2000/svg" viewBox="0 0 1070 1070">
  <defs>
    <style>
      .cls-1 {
        fill: none;
      }
      .pth-1 {
        fill: #223264;
      }
    </style>
  </defs>
  <g id="Capa_1-2" data-name="Capa 1">
    <g>
      <g>
        <path class="pth-1" d="M817,396.24v-139.53c0-23.09-18.78-41.87-41.87-41.87H294.87c-23.09,0-41.87,18.78-41.87,41.87v139.53c0,14.05,6.96,26.49,17.61,34.09-10.64,7.6-17.61,20.04-17.61,34.09v139.53c0,14.05,6.96,26.49,17.61,34.09-10.64,7.6-17.61,20.04-17.61,34.09v139.53c0,23.09,18.78,41.87,41.87,41.87h480.26c23.09,0,41.87-18.78,41.87-41.87v-139.53c0-14.05-6.96-26.49-17.61-34.09,10.65-7.6,17.61-20.04,17.61-34.09v-139.53c0-14.05-6.96-26.49-17.61-34.09,10.65-7.6,17.61-20.04,17.61-34.09Zm-15.56,275.88v139.53c0,14.51-11.8,26.31-26.31,26.31H294.87c-14.51,0-26.31-11.8-26.31-26.31v-139.53c0-14.51,11.8-26.31,26.31-26.31h480.26c14.51,0,26.31,11.8,26.31,26.31Zm0-207.71v139.53c0,14.51-11.8,26.31-26.31,26.31H294.87c-14.51,0-26.31-11.8-26.31-26.31v-139.53c0-14.51,11.8-26.31,26.31-26.31h480.26c14.51,0,26.31,11.8,26.31,26.31Zm0-68.18c0,14.51-11.8,26.31-26.31,26.31H294.87c-14.51,0-26.31-11.8-26.31-26.31v-139.53c0-14.51,11.8-26.31,26.31-26.31h480.26c14.51,0,26.31,11.8,26.31,26.31v139.53Z"/>
        <path class="pth-1" d="M361.13,272.8c-29.6,0-53.68,24.08-53.68,53.68s24.08,53.68,53.68,53.68,53.68-24.08,53.68-53.68-24.08-53.68-53.68-53.68Zm0,91.8c-21.02,0-38.12-17.1-38.12-38.12s17.1-38.12,38.12-38.12,38.12,17.1,38.12,38.12-17.1,38.12-38.12,38.12Z"/>
        <path class="pth-1" d="M744.25,316.17h-219.95c-5.59,0-10.11,4.53-10.11,10.11s4.53,10.11,10.11,10.11h219.95c5.59,0,10.11-4.53,10.11-10.11s-4.53-10.11-10.11-10.11Z"/>
        <path class="pth-1" d="M361.13,587.86c29.6,0,53.68-24.08,53.68-53.68s-24.08-53.68-53.68-53.68-53.68,24.08-53.68,53.68,24.08,53.68,53.68,53.68Zm0-91.8c21.02,0,38.12,17.1,38.12,38.12s-17.1,38.12-38.12,38.12-38.12-17.1-38.12-38.12,17.1-38.12,38.12-38.12Z"/>
        <path class="pth-1" d="M524.31,544.1h219.95c5.59,0,10.11-4.53,10.11-10.11s-4.53-10.11-10.11-10.11h-219.95c-5.59,0-10.11,4.53-10.11,10.11s4.53,10.11,10.11,10.11Z"/>
        <path class="pth-1" d="M361.13,795.57c29.6,0,53.68-24.08,53.68-53.68s-24.08-53.68-53.68-53.68-53.68,24.08-53.68,53.68,24.08,53.68,53.68,53.68Zm0-91.8c21.02,0,38.12,17.1,38.12,38.12s-17.1,38.12-38.12,38.12-38.12-17.1-38.12-38.12,17.1-38.12,38.12-38.12Z"/>
        <path class="pth-1" d="M524.31,751.81h219.95c5.59,0,10.11-4.53,10.11-10.11s-4.53-10.11-10.11-10.11h-219.95c-5.59,0-10.11,4.53-10.11,10.11s4.53,10.11,10.11,10.11Z"/>
      </g>
      <rect class="cls-1" width="1070" height="1070"/>
    </g>
  </g>
</svg>