<?xml version="1.0" encoding="UTF-8"?>
<svg id="Capa_2" data-name="Capa 2" xmlns="http://www.w3.org/2000/svg" viewBox="0 0 1070 1070">
  <defs>
    <style>
      .cls-1 {
        fill: none;
      }
      .pth-1 {
        fill: #223264;
      }
    </style>
  </defs>
  <g id="Capa_1-2" data-name="Capa 1">
    <g>
      <g>
        <path class="pth-1" d="M837.49,311.02c0-3.32-.24-6.65-.39-9.97-.02-.5,.07-1.11-.18-1.49-1.01-1.54-.76-3.29-1.07-4.96-.45-2.46-1.2-4.87-1.45-7.38-.05-.47-.44-.9-.59-1.38-.6-1.8-1.36-3.53-1.84-5.38-.49-1.9-.6-4-2.25-5.45-.2-.17-.19-.56-.31-.84-.54-1.27-.85-2.75-1.7-3.77-1.86-2.24-2.72-5.07-4.65-7.27-1.38-1.56-2.32-3.49-3.71-5.03-3.26-3.61-6.68-7.09-10.54-10.1-1.25-.98-2.91-1.44-3.75-2.95-.12-.22-.5-.38-.78-.41-.86-.11-1.38-.77-2.07-1.14-1.22-.67-2.33-1.5-3.6-2.13-2.23-1.11-4.42-2.32-6.66-3.43-1.4-.7-2.69-1.57-4.33-1.83-1.57-.25-3.21-.7-4.56-1.5-1.3-.77-2.6-.92-3.99-1.15-2.67-.43-5.24-1.44-7.99-1.39-.09,0-.2-.06-.27-.12-1.3-1.02-2.84-.87-4.34-.89-2.42-.04-4.84-.1-7.27-.1-74.71,0-149.42,0-224.13,0s-149.62,0-224.44,0c-2.22,0-4.44,.04-6.66,.09-1.7,.04-3.42-.14-4.95,.94-.36,.25-.98,.18-1.48,.19-3.05,.05-5.84,1.54-8.89,1.6-.37,0-.79,.23-1.08,.48-.49,.43-1.07,.53-1.64,.71-1.34,.42-2.66,1.21-4.01,1.27-1.67,.07-2.73,1.16-4.05,1.75-3.2,1.42-6.26,3.14-9.21,5.04-1.81,1.17-3.9,1.93-5.35,3.63-3.08,1.54-5.26,4.19-7.81,6.38-3.14,2.69-5.39,6.15-8.09,9.21-.41,1.54-1.78,2.41-2.55,3.68-.73,1.19-1.22,2.51-1.82,3.78-1.66,.71-1.11,2.7-2.19,3.8-.45,.45-.36,1.47-.82,1.87-.94,.81-1.13,1.84-1.43,2.9-.81,2.88-1.51,5.8-2.89,8.5-.26,.51-.24,1.18-.34,1.77-.17,.99-.2,2.03-.52,2.97-.56,1.64-.86,3.33-.9,5.03-.03,1.47-.87,2.65-1.02,4.06-.29,2.71-.37,5.43-.37,8.16,0,150.86,0,301.72,0,452.57,0,.4,.02,.81,0,1.21-.35,4.89,1.01,9.58,1.8,14.32,.31,1.86,.95,3.69,1.13,5.6,.05,.58,.38,1.13,.58,1.7,.65,1.78,1.44,3.53,1.91,5.35,.6,2.33,1.01,4.7,2.46,6.71,.41,.57,.85,1.2,.98,1.86,.27,1.34,.9,2.49,1.8,3.42,1,1.04,1.22,2.54,2.21,3.52,1.36,1.34,2.17,3.07,3.39,4.52,1.21,1.44,2.21,3.06,3.58,4.41,2,1.96,3.89,4.02,5.82,6.06,.54,.57,.91,1.47,1.56,1.72,1.29,.51,2.13,1.49,3.15,2.28,.94,.73,1.9,1.52,2.98,1.97,2.51,1.04,4.78,2.53,7.15,3.81,1.58,.86,3.2,1.65,4.79,2.47,1.66,.86,3.31,1.72,5.22,2.03,1.36,.22,2.79,.66,3.95,1.38,1.19,.74,2.42,.92,3.71,1.08,2.79,.36,5.42,1.57,8.29,1.45,.09,0,.2,.05,.28,.1,1.42,.99,3.06,.89,4.67,.91,2.32,.03,4.64,.1,6.96,.1,149.32,0,298.64,0,447.97,0,1.41,0,2.83,.08,4.24-.02,2.68-.2,5.48,.42,7.98-1.11,.16-.1,.4-.08,.6-.07,3.27,.06,6.25-1.54,9.5-1.64,.3,0,.62-.08,.88-.22,2.29-1.28,4.74-2.11,7.33-2.5,.29-.04,.61-.15,.82-.33,2.49-2.09,5.69-2.86,8.41-4.55,1.25-.77,2.5-1.63,3.89-2.22,3.82-1.63,6.22-4.03,9.33-6.76,1.66-1.45,3.18-3.07,4.65-4.72,1.73-1.94,3.73-3.68,4.85-6.1,1.64-1.23,2.12-3.38,3.7-4.66,1.03-2.6,3.3-4.52,4.02-7.31,.15-.57,.4-1.2,.79-1.62,.88-.94,1.1-2.11,1.42-3.28,.84-2.99,1.6-6,2.94-8.82,.29-.62,.36-1.36,.45-2.05,.39-3.09,1.41-6.06,1.69-9.17,.03-.38,.32-.73,.43-1.12,.14-.48,.28-.97,.3-1.46,.15-3.43,.37-6.85,.37-10.28,.02-149.44,.02-298.89,0-448.33Zm-26.17,449.91c0,2.42-.09,4.85-.05,7.27,.04,2.85-.49,5.6-1.27,8.33-.17,.59-.34,1.15-.75,1.63-.4,.48-.58,1.06-.63,1.67-.19,2.15-1,4.06-2.41,5.67-.65,.74-.3,1.82-.99,2.48-1.89,1.8-2.43,4.64-4.73,6.12-.48,2-2.76,2.55-3.5,4.36-.14,.33-.56,.57-.89,.79-.25,.17-.71,.15-.81,.36-1.05,1.97-3,2.88-4.65,4.15-.55,.43-1.2,.75-1.66,1.19-1.11,1.05-2.67,1.25-3.78,2.36-1.05,1.05-2.66,1.36-4.14,1.74-.86,.22-1.36,1.04-2.32,1.31-1.83,.52-3.58,1.26-5.52,1.26-.2,0-.4,.07-.58,.15-3.12,1.45-6.49,1.15-9.78,1.33-1.81,.1-3.63,.04-5.45,.04-148.3,0-296.6,0-444.9,0-3.23,0-6.46-.09-9.69-.22-1.59-.06-3.22-.04-4.68-.93-.41-.25-.96-.35-1.46-.38-2.74-.18-5.27-.92-7.55-2.49-.31-.22-.77-.22-1.15-.34-.57-.19-1.22-.29-1.7-.63-2.26-1.59-4.93-2.54-6.96-4.49-.28-.27-.62-.54-.98-.67-1.4-.5-2.44-1.35-3.04-2.74-.21-.48-.66-.72-1.16-.88-.6-.2-1.1-.64-1.32-1.19-.31-.8-.76-1.37-1.56-1.71-.26-.11-.57-.34-.66-.6-.64-1.64-2.3-2.44-3.1-3.98-.73-1.41-2.05-2.53-2.71-3.96-.91-1.97-2.02-3.82-2.96-5.75-.21-.43-.18-.98-.28-1.47-.12-.59-.14-1.24-.42-1.76-2.14-3.94-2.49-8.22-2.47-12.58,0-1.72-.02-3.43-.02-5.15,0-150.64,0-301.29,0-451.93,0-2.32,.09-4.65,.02-6.97-.09-3.07,.96-5.95,1.41-8.92,1.6-2.14,1.27-5.04,2.76-7.21,1.23-1.79,1.98-3.83,3.18-5.65,1.72-2.62,3.97-4.7,6.05-6.97,1.54-1.69,3.21-3.26,4.71-5.01,1.51-1.76,3.67-3.03,5.76-4.16,.71-.38,1.4-.68,1.99-1.26,.42-.41,.98-.73,1.54-.93,2.53-.87,4.91-2.11,7.39-3.11,.45-.18,.99-.13,1.49-.21,1.09-.18,2.31-.13,3.24-.62,1.7-.91,3.5-.88,5.29-.98,2.11-.12,4.24-.11,6.36-.11,150.12,0,300.24,0,450.35,0,2.12,0,4.24,0,6.36,.11,1.79,.09,3.61,.03,5.27,1,.58,.34,1.35,.44,2.05,.5,2.53,.2,4.87,.86,6.96,2.36,.3,.22,.77,.2,1.15,.32,.67,.23,1.41,.36,1.97,.75,2.19,1.52,4.6,2.69,6.72,4.35,2.99,2.35,5.37,5.31,8.19,7.82,2.32,2.07,4.09,4.59,5.78,7.17,.44,.67,.9,1.26,1.12,2.08,.39,1.43,1.7,2.41,2.09,3.89,.12,.48,.51,.9,.57,1.37,.2,1.4,.26,2.83,1.34,3.92,.2,2.42,1.43,4.62,1.41,7.09-.01,3.03,.15,6.06,.15,9.08,0,75.52,0,151.05,0,226.57s0,150.24,0,225.36Z"/>
        <path class="pth-1" d="M760.75,426.73c-11.31,0-22.61-.02-33.92,.02-1.48,0-3.01-.39-4.46,.3-.5,1.53-1,3.05-1.48,4.58-.09,.28-.04,.61-.11,.9-.09,.38-.12,.88-.38,1.11-.86,.77-.82,1.79-.93,2.78-.09,.8-.06,1.65-.33,2.39-.86,2.29-1.09,4.71-1.64,7.07-.38,1.62,0,3.49-1.45,4.79-.12,.11-.12,.38-.14,.58-.4,3.3-1.11,6.52-2.58,9.53-.09,.18-.16,.39-.16,.58-.03,2.55-1.01,4.91-1.5,7.37-.1,.49-.07,1.13-.37,1.43-.99,.97-.86,2.21-1.06,3.38-.16,.89-.18,1.85-.54,2.65-.86,1.93-.89,4.12-2.02,5.96-.29,.47-.19,1.18-.23,1.78-.14,2.33-1.3,4.43-1.57,6.73-.97,.92-1.09,2.17-1.13,3.35-.1,2.46-1.36,4.65-1.53,7.08-.01,.19-.1,.43-.24,.54-1.04,.78-.94,1.9-1.05,3.01-.1,1-.26,2.02-.6,2.95-.68,1.87-.85,3.9-1.84,5.69-.32,.58-.26,1.37-.37,2.07-.11,.7-.05,1.46-.32,2.08-.92,2.07-.97,4.32-1.48,6.47-.37,1.55-.28,3.22-1.44,4.54-.29,.33-.34,.96-.33,1.45,.1,2.59-1.37,4.83-1.55,7.35-.02,.28-.19,.58-.37,.82-.63,.85-.8,1.81-.84,2.85-.03,.8-.13,1.64-.41,2.37-.79,2.05-.74,4.35-1.95,6.29-.4,.64-.35,1.55-.5,2.34-.11,.59-.07,1.25-.31,1.77-.61,1.31-.89,2.67-1.06,4.08-.05,.39-.13,.89-.39,1.11-.9,.77-.74,1.82-.88,2.8-.4,2.68-1.05,5.32-2.05,7.83-.42,1.05-.78,2.04-.8,3.17-.01,.7-.13,1.41-.24,2.1-.12,.77-.65,1.21-1.3,1.56-.76,.41-1.43,.1-1.48-.78-.09-1.92-.09-3.84-1.4-5.45-.11-.14-.1-.39-.13-.59-.45-2.57-1.41-5.03-1.59-7.68-.1-1.49-.66-2.94-.69-4.47-.01-.58-.26-1.2-.56-1.7-.48-.8-.57-1.73-.96-2.52-1.38-2.82-.59-6.23-2.52-8.88-.05-2.44-1.5-4.59-1.44-7.08,.02-.98-.28-1.98-.9-2.84-.28-.39-.49-.91-.55-1.39-.3-2.4-1.51-4.6-1.46-7.07,0-.29-.09-.63-.26-.86-1.49-2.02-1.47-4.54-2.1-6.81-.48-1.71-.31-3.6-1.53-5.09-.1-2.43-1.52-4.59-1.48-7.06,.02-1.02-.25-1.98-.83-2.86-.32-.49-.5-1.09-.65-1.66-.55-2.03-1.27-4.03-1.38-6.16-.03-.5,0-1.17-.29-1.45-1.17-1.12-.91-2.61-1.23-3.95-.56-2.35-.71-4.78-1.57-7.08-.45-1.2-.56-2.57-.62-3.87-.06-1.39-1.19-2.26-1.43-3.6-.39-2.16-1.35-4.21-1.26-6.48,.02-.52-.27-.95-.59-1.36-.24-.31-.5-.67-.55-1.03-.35-2.7-1.64-5.2-1.68-7.97,0-.49-.06-1.14-.37-1.42-.75-.7-.76-1.57-.96-2.46-.49-2.15-1.41-4.19-1.39-6.46,0-.27-.15-.63-.35-.81-.76-.68-.78-1.63-.95-2.5-.47-2.46-1.6-4.8-1.49-7.38,0-.1,0-.23-.05-.29-1.44-1.7-1.13-3.99-2-5.88-.31-.67-.42-1.34-.44-2.05-.08-3.09-.88-2.56-2.94-2.58-6.06-.05-12.11-.02-18.17-.02-5.86,0-11.71,0-17.57,0-.71,0-1.41-.02-2.12,0-1.13,.05-1.36,.41-1.25,1.49,.38,3.51,1.99,6.76,2.1,10.32,0,.29,.11,.64,.3,.84,.83,.88,.8,2.02,1.09,3.08,.58,2.13,1.33,4.22,1.34,6.47,0,.19,.04,.45,.16,.57,1.41,1.48,1.35,3.53,1.96,5.31,.74,2.14,.74,4.48,1.76,6.62,.54,1.13,.84,2.51,1.02,3.75,.38,2.59,1.27,5,1.93,7.5,.56,2.12,1.62,4.15,1.47,6.45-.02,.35,.26,.76,.5,1.07,.52,.67,.62,1.47,.79,2.26,.21,.98,.46,1.94,.8,2.9,.43,1.21,.49,2.56,.64,3.86,.16,1.42,1.5,2.36,1.42,3.89-.03,.67,.22,1.4,.5,2.04,.51,1.13,.57,2.32,.75,3.52,.32,2.18,.81,4.34,1.23,6.51,1.55,2,1.34,4.58,2.19,6.82,.61,1.61,0,3.63,1.43,5.08,.11,.12,.07,.39,.1,.59,.39,2.49,1.55,4.81,1.6,7.37,0,.29,.05,.67,.23,.86,1.53,1.66,.97,4.08,2.15,5.86-.07,2.25,.71,4.27,1.55,6.32,1.32,3.23,.93,6.95,2.78,10.05,.05,.08,.03,.2,.05,.3,.26,2.4,1.61,4.56,1.51,7.05-.01,.36,.19,.83,.45,1.09,.64,.63,.6,1.46,.88,2.2,1.15,3.08,.83,6.56,2.59,9.47,.1,2.44,1.35,4.61,1.52,7.07,.13,1.87,.93,3.7,.98,5.64,0,.29,.04,.7,.23,.85,.97,.8,.84,1.97,1.17,3,.68,2.12,1.14,4.27,1.43,6.48,.04,.3,0,.68,.18,.88,1.34,1.53,1.09,3.6,1.84,5.33,.4,.92,.58,1.93,.55,2.96-.02,.82,.1,1.58,.81,2.18,.27,.23,.42,.69,.47,1.07,.32,2.61,1.56,5.01,1.64,7.67,.02,.7,.2,1.38,.71,1.95,.25,.28,.5,.7,.5,1.06,.04,1.96,1.16,3.64,1.42,5.54,.06,.47,.29,1.01,.62,1.33,.85,.81,1.13,1.9,1.64,2.87,.46,.87,.7,1.8,1.61,2.46,.68,.49,1.14,1.42,1.46,2.24,.66,1.71,2.33,2.76,2.82,4.55,1.68,1.71,3.38,3.4,5.04,5.14,1.25,1.31,3.06,1.87,4.22,3.29,2.8,.72,4.86,3.31,8.01,3.2,.37-.01,.73,.31,1.12,.44,1.16,.37,2.34,.58,3.57,.55,1.91-.04,3.81,.05,5.65-.73,.9-.38,1.97-.51,2.96-.5,1.3,0,1.66-1.43,2.83-1.57,1.26-.14,2.19-1.08,3.05-1.81,2.43-2.05,4.74-4.27,6.94-6.57,2.2-2.31,3.44-5.35,5.62-7.7,.9-2.45,2.92-4.35,3.37-7.01,.89-1.04,.71-2.55,1.42-3.57,.76-1.09,.88-2.21,.99-3.4,.05-.6,0-1.26,.23-1.79,1.07-2.34,1.16-4.89,1.71-7.35,.2-.88,.13-1.87,.76-2.58,.73-.83,.89-1.81,.9-2.81,.01-1.23,.26-2.4,.71-3.53,.7-1.75,.49-3.81,1.82-5.35,.11-.13,.11-.39,.12-.59,.14-2.22,.81-4.33,1.41-6.46,.29-1.04,.13-2.22,1.09-3.04,.19-.16,.3-.55,.28-.83-.12-2.49,1.34-4.64,1.52-7.07,.03-.38,.16-.84,.42-1.11,.85-.89,.86-2.01,1-3.1,.11-.8,0-1.7,.36-2.37,1.04-1.96,.53-4.43,2.11-6.2,.17-.19,.1-.58,.13-.88,.28-3.02,1.02-5.9,2.49-8.57,.19-.34,.29-.77,.29-1.16,.04-1.94,.54-3.76,1.17-5.58,.45-1.29,.16-2.82,1.35-3.9,.23-.21,.13-.77,.2-1.17,.67-3.95,1.24-7.93,2.36-11.79,.14-.49,.27-.98,.65-1.33,.51-.45,.54-1.05,.62-1.65,.22-1.69,.42-3.37,1.05-5,.61-1.56,.41-3.41,1.66-4.76,.12-.13,.11-.38,.13-.58,.11-1.71,.36-3.35,.96-5.01,.57-1.58,.78-3.3,1.59-4.82,.14-.26,.24-.58,.24-.87,0-1.75,.63-3.35,1.16-4.96,.39-1.21,.22-2.52,1.18-3.67,.91-1.08,.1-2.84,.74-4.08,.9-1.75,.62-3.8,1.62-5.47,.65-1.08,.9-2.22,.93-3.46,.07-2.25,1.34-4.21,1.6-6.42,1.19-.84,.92-2.14,1.07-3.31,.09-.7,.1-1.45,.38-2.08,.8-1.78,.88-3.7,1.35-5.54,.46-1.83,.34-3.82,1.52-5.49,.37-.52,.34-1.35,.39-2.05,.16-2.45,1.41-4.61,1.75-7,1.17-1.09,1-2.56,1.16-3.95,.07-.6,.07-1.27,.35-1.77,1-1.77,.63-4,1.97-5.65,.17-.21,.18-.58,.19-.88,.08-2.04,.72-3.94,1.26-5.89,.97-3.46,.9-3.49-2.56-3.49Z"/>
        <path class="pth-1" d="M576.65,608.68c0-1.29-.14-1.4-1.38-1.43-.61-.02-1.21,0-1.82,0-17.57,0-35.13,0-52.7,0-4.04,0-8.08,.02-12.11,0-2.19-.01-2.44-.29-2.49-2.41,0-.2,.01-.4,.01-.61,0-15.35,0-30.69-.03-46.04,0-3.44,.75-3.06,3.1-3.06,12.11,0,24.23,0,36.34,0,.81,0,1.62,.03,2.42-.02,.86-.05,1.22-.44,1.28-1.35,.04-.6,.02-1.21,.02-1.82,0-10.4,0-20.8,0-31.2,0-.61,.01-1.21-.03-1.82-.13-2.24-.63-2.2-2.42-2.11-.4,.02-.81,0-1.21,0-11.81,0-23.62,0-35.44,0-.81,0-1.62,.03-2.42-.03-1.22-.1-1.63-.54-1.67-1.68,0-.2,.03-.4,.03-.6,0-15.45,0-30.9,0-46.34,0-.7,.07-1.41,.15-2.11,.08-.69,.48-1.11,1.18-1.15,.91-.05,1.82-.03,2.72-.03,21,0,42,0,63,0,.71,0,1.41,.02,2.12,0,1.04-.03,1.29-.26,1.33-1.2,.03-.6,0-1.21,0-1.82,0-5.76,.02-11.51,.02-17.27,0-5.45,.01-10.9-.01-16.36,0-1.25-.22-1.43-1.38-1.47-.61-.02-1.21,0-1.82,0-25.84,0-51.69,0-77.53,0-1.41,0-2.83,.18-4.24,.09-2.6-.17-4.81,1.33-7.31,1.6-.93,.1-1.34,1.13-2.29,1.39-.93,.25-1.51,1.32-2.65,1.27-.42-.02-.63,.41-.88,.74-.36,.48-.71,1.1-1.21,1.31-1.22,.5-1.66,1.72-2.55,2.47-1.01,.86-1.7,1.89-2.36,3-.56,.94-1.46,1.75-1.79,2.75-.75,2.28-1.67,4.52-1.98,6.95-.27,2.11-.38,4.21-.38,6.33,0,27.06,0,54.12,0,81.18s.01,54.73-.02,82.09c0,2.54,.32,5.03,.59,7.53,.23,2.11,1.41,3.95,1.95,5.98,1.78,1.7,2.13,4.51,4.47,5.81,.31,.17,.51,.63,.63,1,.22,.67,.69,.92,1.31,1.1,.37,.11,.83,.29,1.02,.58,1.09,1.64,2.9,2.09,4.49,2.91,.53,.28,1.18,.48,1.55,.9,.6,.69,1.36,.82,2.14,.97,.79,.15,1.64,.1,2.39,.36,2.54,.9,5.15,.88,7.78,.87,25.64,0,51.29,0,76.93,0,.71,0,1.41,.01,2.12,0,.59-.01,.95-.35,.99-.91,.06-.8,.04-1.61,.04-2.42,0-8.18,0-16.36,0-24.54,0-3.13,.02-6.26,0-9.39Z"/>
        <path class="pth-1" d="M607.75,333.49c.44-.24,1.13,.12,1.17,.58,.02,.2,.01,.4,.01,.6-.02,17.85-.04,35.69-.06,53.54,0,.4-.01,.81,0,1.21,.04,1.75,.22,1.97,1.87,1.99,1.71,.03,3.43-.01,5.14,0,3.57,.04,3.2,.02,3.2-3.34,0-20.47,0-40.94,0-61.41,0-.71,.02-1.41,0-2.12-.04-.93-.37-1.29-1.27-1.31-1.61-.03-3.23,.09-4.84-.03-2.91-.21-5.59,.13-7.82,2.28-.48,.47-1.26,.61-1.85,.99-1.45,.91-2.87,1.86-4.3,2.79-.71,.46-1.15,1.02-1.14,1.97,.05,2.69,.02,5.38,.02,7.98,.62,.31,.91,.05,1.25-.18,2.44-1.6,4.9-3.17,7.35-4.75,.42-.27,.84-.56,1.28-.8Z"/>
        <path class="pth-1" d="M732.88,339.3c2.53-1.64,5.06-3.29,7.6-4.93,.5-.32,1.01-.65,1.55-.91,.42-.21,1.07,.23,1.09,.7,.02,.4-.02,.81-.02,1.21,0,17.55,0,35.1,0,52.65,0,.71-.02,1.41,.01,2.12,.04,.89,.39,1.25,1.33,1.26,2.52,.03,5.04,.03,7.56-.01,.87-.01,1.24-.44,1.29-1.34,.04-.7,.02-1.41,.02-2.12,0-10.19,0-20.37,0-30.56s0-20.37,0-30.56c0-.71,.03-1.41,0-2.12-.06-1.08-.39-1.44-1.49-1.45-2.52-.03-5.04,.03-7.56-.03-1.06-.03-1.97,.22-2.83,.81-.99,.69-1.99,1.37-3.01,2.01-1.79,1.12-3.6,2.19-5.39,3.3-.63,.39-1,.96-1,1.75,0,2.62-.01,5.24-.01,7.86,0,.4,.49,.6,.87,.36Z"/>
        <path class="pth-1" d="M702.16,391.02c1.6,.84,3.33,.17,4.78,.4,1.6,0,3.01-.01,4.41,0,.75,.01,1.12-.4,1.13-1.07,.03-2.4,.01-4.81,0-7.21,0-.49-.33-.71-.76-.71-2-.02-4.01-.05-6.01,0-1.17,.03-2.62-.52-3.44,.34-.82,.85-.26,2.29-.26,3.46,0,1.59-.23,3.2,.14,4.78Z"/>
        <path class="pth-1" d="M442.81,477.59c-.62-.99-.69-2.06-.96-3.12-.52-2.05-1.23-4.05-1.35-6.18-.01-.19-.1-.4-.22-.56-1.39-1.79-1.83-3.96-2.44-6.06-.17-.59-.41-1.12-.77-1.62-.47-.65-.94-1.33-1.24-2.06-1.2-2.92-3.03-5.42-5.11-7.76-.33-.37-.73-.76-.86-1.22-.49-1.62-1.66-2.74-2.77-3.88-1.67-1.73-3.47-3.31-5.19-5-1.42-1.4-3.2-2.33-4.77-3.53-2.12-1.61-4.63-2.74-7.06-3.9-.85-.41-1.34-1.41-2.2-1.48-1.95-.16-3.57-1.4-5.5-1.54-.48-.04-1.1-.14-1.4-.45-.8-.84-1.82-.8-2.81-.91-2.11-.22-4.2-.52-6.26-1.05-.87-.22-1.79-.29-2.69-.32-3.43-.1-6.86-.22-10.29-.23-18.57-.02-37.14-.02-55.72,0-3.8,0-3.92-.67-3.92,3.95,.02,35.23,.01,70.46,0,105.69,0,35.33,0,70.66,0,106,0,3.61-.02,3.52,3.45,3.52,17.87-.02,35.73,0,53.6,0,2.12,0,4.23-.02,6.35-.25,3.01-.33,6.02-.58,9.04-.79,2.29-.16,4.65,.09,6.67-1.38,.15-.11,.39-.12,.58-.14,2.12-.21,4-1.4,6.17-1.44,.28,0,.65-.14,.8-.34,.53-.72,1.3-.82,2.07-1.07,1.33-.44,2.79-.83,3.82-1.69,1.35-1.12,2.85-1.78,4.39-2.46,.35-.16,.74-.37,.97-.66,1.32-1.67,3.59-2.16,4.82-3.93,1.8-.8,2.67-2.69,4.31-3.68,.41-1.25,2-1.41,2.47-2.53,.94-2.22,2.82-3.77,3.99-5.86,1.15-2.07,2.41-4.11,3.56-6.2,.29-.52,.64-1.01,.92-1.53,.23-.44,.44-.89,.59-1.37,.59-1.88,1.03-3.81,2.25-5.44,.22-.3,.31-.74,.35-1.13,.28-2.51,1.59-4.8,1.63-7.36,0-.28,.14-.6,.3-.84,.87-1.34,.92-2.85,.94-4.37,.03-1.72,.08-3.43,.09-5.15,0-32.71,.02-65.41,.01-98.12,0-2.42-.06-4.85-.1-7.27-.02-1.11,.06-2.3-.53-3.25Zm-35.31,106.66c-.03,.8,.01,1.67-.27,2.39-.7,1.8-1.1,3.65-1.34,5.55-.06,.51-.29,.93-.57,1.36-.86,1.34-1.62,2.74-2.46,4.09-.26,.42-.65,.77-1.03,1.1-.3,.26-.85,.33-1,.63-1,2.04-3.02,2.54-4.85,3.31-1.37,.58-2.44,1.63-3.87,2.16-.74,.28-1.43,.62-2.24,.73-1.79,.23-3.6,.32-5.34,.93-.74,.26-1.59,.25-2.39,.25-6.15,.02-12.31,.01-18.46,0-.6,0-1.22,.02-1.8-.11-1.42-.32-1.97-1.04-2.03-2.56-.03-.81,0-1.61,0-2.42,0-21.7,0-43.39,0-65.09,0-21.8,0-43.59,0-65.39,0-.81-.03-1.62,.01-2.42,.05-1.06,.37-1.36,1.51-1.45,.6-.05,1.21-.05,1.81-.05,7.77,.02,15.54,.07,23.31,.06,2.39,0,4.59,.43,6.5,1.98,.38,.31,.86,.52,1.32,.69,1.42,.51,2.88,.91,3.71,2.37,.16,.28,.67,.38,1.04,.5,.71,.23,1.24,.66,1.58,1.32,.27,.54,.56,1.04,1.18,1.3,.86,.37,1.24,1.22,1.82,1.9,1.65,1.92,2.52,4.07,2.68,6.56,.02,.39,.12,.82,.32,1.15,.79,1.27,.81,2.68,.87,4.09,.06,1.41,.08,2.82,.08,4.24,0,28.86,0,57.72,0,86.58,0,1.41-.02,2.83-.08,4.24Z"/>
        <path class="pth-1" d="M645.61,376.88c.46,2.1,1.27,3.96,2.28,5.81,1.41,2.59,3.77,4.13,6.13,5.66,2.2,1.42,4.51,2.64,7.2,2.87,.6,.05,1.24,.14,1.75,.41,.76,.41,1.53,.39,2.34,.42,3.89,.19,7.58-.71,11.13-2.17,3.8-1.57,7.02-3.96,9.07-7.62,1.69-3.01,2.53-6.27,2.52-9.75-.02-5.15,0-10.29,0-15.44s0-10.7,0-16.04c0-3.95-1.13-7.68-3.47-10.74-3.22-4.22-7.78-6.71-12.99-7.6-2.55-.44-5.23-.2-7.85-.23-2.88-.04-5.39,1.38-8.06,2.16-7.69,4.51-10.31,8.91-10.56,17.23-.27,8.77-.07,17.56-.05,26.34,0,2.91-.07,5.79,.57,8.69Zm9.92-36.69c.31-4.44,4.61-8.71,8.91-8.81,1.81-.04,3.62-.17,5.43,.15,3.35,.59,6.38,3.49,7.36,6.76,.47,1.58,.58,3.13,.58,4.75-.02,9.69-.06,19.37,.02,29.05,.02,2.96-.97,5.52-2.67,7.75-.8,1.05-2.18,1.83-3.46,2.3-2.54,.93-5.2,1.46-7.92,.62-.86-.26-1.76-.41-2.57-.78-3.94-1.75-5.63-4.98-5.69-9.12-.08-5.25-.02-10.49-.02-15.74,0-4.94,0-9.89,0-14.83,0-.71-.02-1.41,.03-2.12Z"/>
      </g>
      <rect class="cls-1" width="1070" height="1070"/>
    </g>
  </g>
</svg>