<?xml version="1.0" encoding="UTF-8"?>
<svg id="Capa_2" data-name="Capa 2" xmlns="http://www.w3.org/2000/svg" viewBox="0 0 1070 1070">
  <defs>
    <style>
      .cls-1 {
        fill: none;
      }
      .pth-1 {
        fill: #223264;
      }
    </style>
  </defs>
  <g id="Capa_1-2" data-name="Capa 1">
    <g>
      <path class="pth-1" d="M362.25,272.27c4.67,2.67,8.92,4.61,12.62,7.3,14.45,10.49,28.64,21.34,43.09,31.83,11.55,8.39,39.89-3.21,42.08-17.34,2.74-17.63,5.05-35.32,7.29-53.02,1.48-11.73,6.75-17.35,19.6-17.07,32.05,.71,64.13,.7,96.18,0,12.86-.28,18.08,5.43,19.56,17.14,1.78,14.05,3.98,28.05,6,42.07,2.68,18.59,14.45,30.79,32.45,32.41,3.55,.32,7.88-2.13,11.06-4.41,14.52-10.39,28.96-20.92,43.03-31.91,8.98-7.01,16.31-7.23,24.67,1.34,23.11,23.72,46.64,47.02,70.21,70.28,7.27,7.17,7.91,13.99,1.68,22.15-11.15,14.61-22,29.46-32.83,44.32-9.17,12.57,2.38,40.4,17.82,42.76,16.6,2.53,33.21,5.1,49.91,6.86,12.98,1.37,19.78,6.18,19.4,20.78-.84,31.52-.82,63.09,0,94.6,.36,13.76-6,18.82-18.17,20.34-16.66,2.09-33.28,4.5-49.91,6.86-16.55,2.35-28.52,29.91-18.75,43.29,10.22,14,20.28,28.14,31.04,41.72,7.57,9.56,7.5,17.08-1.61,25.87-23.07,22.26-45.74,44.95-68.02,68.01-8.69,8.99-16.12,9.54-25.8,1.79-13.11-10.5-26.95-20.09-40.48-30.07-15.29-11.27-42.35,.22-44.9,19.03-2.25,16.64-4.71,33.25-6.83,49.91-1.5,11.77-6.96,17.2-19.74,16.91-32.05-.72-64.14-.74-96.18,0-13.1,.31-17.86-5.91-19.37-17.34-2.13-16.13-4.54-32.22-6.69-48.34-2.65-19.86-29.25-31.53-45.32-19.77-13.56,9.93-27.28,19.66-40.55,29.98-8.94,6.95-16.2,7.39-24.62-1.29-23.06-23.76-46.6-47.07-70.21-70.29-7.34-7.22-7.92-14-1.74-22.12,11.12-14.64,22.01-29.46,32.84-44.31,9.16-12.57-2.36-40.55-17.68-42.81-17.13-2.53-34.29-4.89-51.47-6.98-12.35-1.51-18.3-6.91-17.95-20.52,.82-31.52,.78-63.08,.02-94.6-.33-13.52,5.43-19.02,17.95-20.47,16.67-1.94,33.28-4.45,49.9-6.82,17.43-2.49,28.65-29.95,18.12-44.36-10.22-14-20.32-28.1-30.92-41.82-6.52-8.44-6.99-15.52,1.06-23.42,24.01-23.56,47.59-47.56,71.51-71.22,2.83-2.8,6.67-4.58,10.67-7.26Zm106.82,475.22c0-28.68-.83-53.8,.34-78.82,.61-13.07-3.85-20.53-14.23-28.3-75.08-56.23-69.28-170.88,10.77-218.55,5.33-3.17,13.23-5.45,18.6-3.8,3.15,.97,5.02,10.51,5.13,16.23,.52,27.33,.61,54.69,.02,82.01-.2,9.13,3.95,13.31,10.58,18.84,23.24,19.4,44.95,21.55,68.68,.63,6.79-5.99,11.62-10.17,11.37-19.98-.68-26.8-.57-53.63,.02-80.43,.14-6.18,1.87-15.76,5.74-17.54,4.55-2.09,13.02,1.28,18.42,4.56,81.04,49.21,84.78,164.02,7.56,220.87-4.3,3.17-10.45,7.87-10.58,12.02-.91,29.67-.49,59.37-.49,92.02,12.93-5.47,23.36-8.86,32.73-14.13,9.2-5.18,16.16-4.25,24.24,2.14,15.55,12.3,31.77,23.77,45.86,34.21,22.42-22.49,43.79-43.92,65.64-65.84-4.87-6.57-10.81-14.57-16.73-22.58-6.24-8.45-12.6-16.82-18.64-25.42-7.33-10.44,11.21-61.67,23.53-65.09,2.49-.69,5.24-.37,7.83-.77,19.1-2.93,38.19-5.92,57.6-8.94v-91.95c-14.39-2.13-28.3-5.44-42.33-5.99-21.85-.87-36.91-8.29-40.6-31.9-.86-5.48-4.07-10.87-7.21-15.64-5.53-8.42-3.82-15.24,2.03-22.78,12.42-16.02,24.2-32.54,34.95-47.11-22.47-22.51-43.55-43.61-65.4-65.49-9.43,6.93-20.91,13.64-30.23,22.59-17.01,16.33-34.11,22.74-54.93,7.14-3.21-2.41-7.68-3.46-11.74-4.37-11.77-2.63-17.18-9.01-18.23-21.75-1.57-19.07-5.64-37.93-8.64-56.79h-91.4c-2.03,12.02-5.52,23.77-5.69,35.57-.37,25.67-8.14,44.57-36.44,49.11-3.5,.56-7.14,2.33-9.98,4.5-9.88,7.56-17.98,4.33-26.71-2.54-15.14-11.9-30.88-23.05-43.87-32.66-22.64,22.69-43.97,44.09-65.75,65.92,5.65,7.67,11.61,17.81,19.51,26.09,17.55,18.41,26.07,37.19,8.4,60.33-2.42,3.16-3.16,7.74-4.21,11.79-2.58,9.85-8.38,14.34-18.93,15.44-19.65,2.05-39.14,5.72-58.57,8.69v90.96c2.77,.85,4.74,1.73,6.8,2.04,17.65,2.7,35.3,5.34,52.97,7.91,17.18,2.51,38.83,52.21,28.65,66.31-11.93,16.54-24.2,32.83-35.17,47.66,22.27,22.26,43.69,43.67,65.7,65.67,15.12-11.19,31.14-24,48.25-35.12,4.92-3.2,13.54-3.38,19.53-1.68,10.92,3.1,21.15,8.63,35.23,14.68Zm0-294.38c-36.73,22-53.47,70.58-40.66,113.09,14.51,48.13,59.58,81.49,108.43,80.25,50.37-1.28,95.11-37.16,106.32-85.27,9.76-41.89-8.6-89.99-42.22-107.2,0,25.31,.82,49.86-.52,74.29-.38,6.89-5.55,15.5-11.21,19.7-12.98,9.65-27.9,16.61-41.46,25.54-9.25,6.09-17.04,5.53-26.01-.41-12.23-8.1-24.67-16.07-37.8-22.54-11.53-5.68-15.6-13.44-15.12-26.1,.89-23.35,.25-46.75,.25-71.35Zm21.57,369.75h88.6v-158.14h-88.6v158.14Z"/>
      <rect class="cls-1" width="1070" height="1070"/>
    </g>
  </g>
</svg>