<?xml version="1.0" encoding="UTF-8"?>
<svg id="Capa_2" data-name="Capa 2" xmlns="http://www.w3.org/2000/svg" viewBox="0 0 1070 1070">
  <defs>
    <style>
      .cls-1 {
        fill: none;
      }
      .pth-1 {
        fill: #223264;
      }
    </style>
  </defs>
  <g id="Capa_1-2" data-name="Capa 1">
    <g>
      <g>
        <path class="pth-1" d="M367.59,612.57c-4.76-2.21-10.9-4.42-18.42-6.64-5.53-1.66-9.82-3.12-12.86-4.4-3.04-1.27-5.59-2.93-7.63-4.98-2.05-2.05-3.07-4.62-3.07-7.72,0-4.42,1.35-7.8,4.07-10.12,2.71-2.32,6.33-3.49,10.87-3.49,5.2,0,9.38,1.3,12.53,3.9,3.15,2.6,4.84,5.89,5.06,9.88h25.56c-.78-10.4-4.9-18.51-12.36-24.31-7.47-5.81-17.18-8.71-29.13-8.71-7.97,0-15.05,1.36-21.24,4.07-6.2,2.71-11.01,6.61-14.44,11.7-3.43,5.09-5.15,11.07-5.15,17.92,0,7.3,1.69,13.14,5.06,17.51,3.37,4.37,7.41,7.63,12.12,9.79,4.7,2.16,10.81,4.34,18.34,6.56,5.53,1.55,9.88,2.96,13.03,4.23,3.15,1.27,5.78,3.02,7.88,5.23,2.1,2.21,3.15,5.04,3.15,8.46,0,4.21-1.55,7.61-4.65,10.21-3.1,2.6-7.36,3.9-12.78,3.9s-9.49-1.38-12.53-4.15c-3.04-2.76-4.73-6.53-5.06-11.29h-24.9c.11,7.08,2.05,13.22,5.81,18.42,3.76,5.2,8.88,9.19,15.35,11.95,6.47,2.77,13.75,4.15,21.82,4.15,8.52,0,15.88-1.58,22.07-4.73,6.19-3.15,10.9-7.39,14.11-12.7,3.21-5.31,4.81-11.06,4.81-17.26,0-7.19-1.72-13-5.14-17.43-3.43-4.42-7.53-7.74-12.28-9.96Z"/>
        <path class="pth-1" d="M483.93,594.64c-3.1-4.2-7.22-7.69-12.36-10.46-5.15-2.76-11.15-4.15-18.01-4.15-7.86,0-14.97,1.94-21.33,5.81-6.36,3.87-11.4,9.41-15.1,16.6-3.71,7.19-5.56,15.44-5.56,24.73s1.85,17.73,5.56,24.98c3.71,7.25,8.74,12.86,15.1,16.85,6.36,3.98,13.41,5.97,21.16,5.97,6.86,0,12.92-1.41,18.17-4.23,5.25-2.82,9.38-6.39,12.36-10.71v13.44h23.4v-91.95h-23.4v13.11Zm-3.32,47.38c-2.21,4.04-5.2,7.14-8.96,9.29-3.76,2.16-7.8,3.24-12.12,3.24s-8.16-1.1-11.87-3.32c-3.71-2.21-6.7-5.39-8.96-9.54-2.27-4.15-3.4-8.99-3.4-14.52s1.13-10.32,3.4-14.36c2.27-4.04,5.23-7.11,8.88-9.21,3.65-2.1,7.63-3.15,11.95-3.15s8.35,1.08,12.12,3.24c3.76,2.16,6.75,5.26,8.96,9.29,2.21,4.04,3.32,8.88,3.32,14.52s-1.11,10.48-3.32,14.52Z"/>
        <path class="pth-1" d="M608.9,594.64c-3.1-4.2-7.22-7.69-12.36-10.46-5.14-2.76-11.15-4.15-18.01-4.15-7.86,0-14.97,1.94-21.33,5.81-6.36,3.87-11.4,9.41-15.1,16.6-3.71,7.19-5.56,15.44-5.56,24.73s1.85,17.73,5.56,24.98c3.71,7.25,8.74,12.86,15.1,16.85,6.36,3.98,13.42,5.97,21.16,5.97,6.86,0,12.92-1.41,18.17-4.23,5.25-2.82,9.38-6.39,12.36-10.71v13.44h23.4v-91.95h-23.4v13.11Zm-3.32,47.38c-2.21,4.04-5.2,7.14-8.96,9.29-3.76,2.16-7.8,3.24-12.12,3.24s-8.16-1.1-11.87-3.32c-3.71-2.21-6.7-5.39-8.96-9.54-2.27-4.15-3.4-8.99-3.4-14.52s1.13-10.32,3.4-14.36c2.27-4.04,5.23-7.11,8.88-9.21,3.65-2.1,7.63-3.15,11.95-3.15s8.35,1.08,12.12,3.24c3.76,2.16,6.75,5.26,8.96,9.29,2.21,4.04,3.32,8.88,3.32,14.52s-1.11,10.48-3.32,14.52Z"/>
        <path class="pth-1" d="M731.05,612.57c-4.76-2.21-10.9-4.42-18.42-6.64-5.53-1.66-9.82-3.12-12.86-4.4-3.04-1.27-5.59-2.93-7.63-4.98-2.05-2.05-3.07-4.62-3.07-7.72,0-4.42,1.35-7.8,4.07-10.12,2.71-2.32,6.33-3.49,10.87-3.49,5.2,0,9.38,1.3,12.53,3.9,3.15,2.6,4.84,5.89,5.06,9.88h25.56c-.77-10.4-4.9-18.51-12.36-24.31s-17.18-8.71-29.13-8.71c-7.97,0-15.05,1.36-21.24,4.07-6.2,2.71-11.01,6.61-14.44,11.7-3.43,5.09-5.14,11.07-5.14,17.92,0,7.3,1.69,13.14,5.06,17.51,3.37,4.37,7.41,7.63,12.12,9.79,4.7,2.16,10.81,4.34,18.34,6.56,5.53,1.55,9.88,2.96,13.03,4.23,3.15,1.27,5.78,3.02,7.88,5.23,2.1,2.21,3.15,5.04,3.15,8.46,0,4.21-1.55,7.61-4.65,10.21-3.1,2.6-7.36,3.9-12.78,3.9s-9.49-1.38-12.53-4.15c-3.04-2.76-4.73-6.53-5.06-11.29h-24.9c.11,7.08,2.05,13.22,5.81,18.42,3.76,5.2,8.88,9.19,15.35,11.95,6.47,2.77,13.75,4.15,21.82,4.15,8.52,0,15.88-1.58,22.07-4.73,6.19-3.15,10.9-7.39,14.11-12.7,3.21-5.31,4.81-11.06,4.81-17.26,0-7.19-1.72-13-5.15-17.43-3.43-4.42-7.53-7.74-12.28-9.96Z"/>
        <path class="pth-1" d="M766.86,500.9c-.39,0-.78,0-1.17,0-6.47-24.43-20.33-46.54-39.76-63.11-22.56-19.24-51.32-29.83-81.01-29.83-12.01,0-23.81,1.69-35.19,5.03-13.99-21.28-32.73-39.21-54.69-52.22-25.69-15.22-55.12-23.27-85.14-23.27-41.77,0-81.76,15.49-112.61,43.61-27.93,25.46-46.27,59.3-52.36,96.21-65.71,5.22-117.59,60.36-117.59,127.39,0,70.47,57.33,127.79,127.79,127.79h473v-1.96c24.41-4.54,46.75-16.83,63.81-35.3,19.8-21.44,30.71-49.34,30.71-78.54,0-63.85-51.95-115.8-115.8-115.8Zm7.79,206.37l-3.96,.33H315.14c-56.74,0-102.9-46.16-102.9-102.9s46.16-102.9,102.9-102.9l12.03,.08,1.11-11.3c7.19-73.08,68.08-128.19,141.62-128.19,50.93,0,98.29,27.49,123.62,71.75l5.32,9.29,9.98-3.87c11.51-4.46,23.66-6.72,36.11-6.72,48.96,0,90.42,34.97,98.59,83.16l1.96,11.53,11.63-1.24c3.25-.35,6.53-.52,9.75-.52,50.13,0,90.91,40.78,90.91,90.91,0,46.84-36.51,86.62-83.12,90.57Z"/>
      </g>
      <rect class="cls-1" width="1070" height="1070"/>
    </g>
  </g>
</svg>