<?xml version="1.0" encoding="UTF-8"?>
<svg id="Capa_2" data-name="Capa 2" xmlns="http://www.w3.org/2000/svg" viewBox="0 0 1070 1070">
  <defs>
    <style>
      .cls-1 {
        fill: #030303;
      }

      .cls-2 {
        fill: none;
      }
      .pth-1 {
        fill: #223264;
      }
    </style>
  </defs>
  <g id="Capa_1-2" data-name="Capa 1">
    <g>
      <g>
        <path class="cls-1 pth-1 " d="M868.5,463.48c-7.55-24.85-22.35-35.82-48.39-35.82-70.74,0-141.48-.07-212.22,.13-5.53,.02-7.26-1.01-7.22-6.98,.3-44.84,.17-89.68,.15-134.51,0-4.78,.07-9.56-1.11-14.27-5.42-21.65-22.77-34.56-46.79-34.57-100.12-.03-200.25-.01-300.37,0-3.26,0-6.54-.05-9.78,.22-23.78,1.95-41.8,20.26-41.86,43.57-.21,75.75-.22,151.49,.02,227.24,.07,23.48,19.33,42.56,42.76,43.29,9.35,.29,18.72,.11,28.08,.12,11.02,.01,10.8-.02,9.57,10.92-2.33,20.69-7.71,40.47-16.62,59.29-2.55,5.38-2.39,10.67,1.79,15.15,3.88,4.15,8.59,4.97,14.28,3.54,50.64-12.75,91.49-39.21,119.03-84.44,2.03-3.34,4.4-4.6,8.38-4.55,18.06,.23,36.14,.34,54.19-.04,5.63-.12,7.28,1.15,7.24,7.06-.28,45.27-.21,90.55-.13,135.82,.05,29.08,18.72,47.64,47.78,47.65,48.32,.02,96.64,.06,144.96-.1,3.96-.01,6.27,1.14,8.34,4.47,6.32,10.17,13.7,19.58,21.54,28.64,26.45,30.58,61.37,46.17,99.43,56.04,8.02,2.08,15.03-3.68,15.58-11.56,.25-3.64-1.15-6.76-2.63-9.94-9.08-19.51-14.07-40.07-15.94-61.47-.4-4.53,.19-6.52,5.57-6.23,9.98,.53,20.02,.22,30.03,.14,20.19-.16,36.3-11.8,43.11-30.86,.53-1.48,.13-3.62,2.24-4.35v-242.93c-.34-.21-.91-.36-1-.65Zm-465.91,62.09c-10.05-.08-16.49,3.01-21.77,11.81-11.92,19.89-26.45,37.74-45.65,51.28-11,7.76-22.89,13.73-36.52,18.7,5.77-19.56,9.09-38.46,9.51-57.85,.46-21.35-1.75-23.77-22.97-23.77-11.97,0-23.94,.02-35.91,0-15.5-.03-22.34-6.8-22.34-22.14-.01-72.68-.01-145.37,0-218.05,0-14.9,6.99-21.94,21.97-21.95,45.7-.04,91.4-.02,137.1-.02,55.06,0,110.11,0,165.17,0,17.26,0,23.53,6.29,23.53,23.61,0,71.81,0,143.62,0,215.44,0,16.86-6.31,23.11-23.26,23.11-49.62,0-99.23,.22-148.85-.18Zm440.76,170.04c0,13.06-7.58,20.47-20.76,20.53-15.02,.07-30.03-.02-45.05,.03-10.86,.04-15.31,4.6-15.46,15.52-.3,22.09,2.8,43.7,9.61,65.79-33.34-11.35-57.53-32.62-76.36-60.61-2.79-4.14-5.69-8.23-8.17-12.56-3.39-5.92-8.24-8.26-15.04-8.24-50.92,.14-101.84,.08-152.77,.07-17.33,0-23.75-6.3-23.75-23.38-.01-44.83,.07-89.66-.11-134.49-.02-4.97,1.04-6.65,6.36-6.54,17.62,.36,35.25,.23,52.88,.11,27.1-.18,45.76-18.76,46.06-45.95,.18-15.67,.15-31.34-.05-47-.05-3.87,.81-5.22,5-5.21,72.47,.13,144.93,.06,217.4,.13,12.65,.01,20.19,7.72,20.2,20.46,.05,73.77,.05,147.55,0,221.32Z"/>
        <path class="cls-1 pth-1 " d="M685.36,511.54c-2.87-7.59-8.6-11.72-15.6-11.77-7-.05-12.83,4.07-15.72,11.6-17.82,46.59-35.6,93.19-53.29,139.83-3.13,8.24,.05,15.48,7.45,18.15,7.18,2.59,13.76-.77,16.99-8.87,2.73-6.85,5.43-13.72,7.81-20.69,1.19-3.48,2.7-5.14,6.81-5.09,19.8,.25,39.61,.22,59.41,.01,3.73-.04,5.36,1.24,6.53,4.62,2.69,7.79,5.53,15.54,8.75,23.12,2.53,5.93,8.64,8.75,14.44,7.4,6.25-1.46,10.2-6.28,10.28-13.71-.25-1-.58-3.16-1.34-5.16-17.48-46.49-34.97-92.97-52.54-139.43Zm4.63,97.17c-13.69-.09-27.38-.16-41.06,.03-4.32,.06-3.3-2.06-2.4-4.4,7.48-19.59,14.98-39.18,23.12-60.45,8.12,21.45,15.58,41.24,23.12,61.01,1.12,2.94,.26,3.83-2.77,3.81Z"/>
        <path class="cls-1 pth-1 " d="M474.7,439.38c-4.17-3.28-4.29-5.84-1.37-10.57,19.04-30.75,16.12-70.28-6.72-98.08-22.79-27.72-60.39-38.51-93.64-26.86-34.6,12.12-57.47,44.1-57.59,80.52-.2,62.18,64.43,103.94,120.6,77.84,5.28-2.45,10.32-8.17,15.23-7.91,5.41,.29,8.73,7.71,13.34,11.6,5.79,4.89,13.23,4.63,18.2-.55,4.86-5.06,5.05-12.09,.23-17.68-2.55-2.96-5.23-5.91-8.28-8.31Zm-21.76-27.18c-.51,.95-1.18,1.8-2.55,3.89-4.51-4.91-8.58-9.7-13.03-14.12-6.19-6.15-14.33-6.34-19.61-.8-5.26,5.53-4.86,12.84,1.16,19.15,3,3.15,6.13,6.17,9.2,9.25q5.07,5.09-1.68,8.35c-22.15,10.71-48.46,6.62-66.53-10.34-22.03-20.67-24.62-55.59-5.9-79.33,19.09-24.2,53.53-29.9,78.98-13.08,25.51,16.87,34.22,50.41,19.97,77.03Z"/>
      </g>
      <rect class="cls-2" width="1070" height="1070"/>
    </g>
  </g>
</svg>