<svg xmlns="http://www.w3.org/2000/svg" width="20.5" height="20.5" viewBox="0 0 20.5 20.5">
  <path id="Icon_awesome-linkedin-in" data-name="Icon awesome-linkedin-in" d="M4.589,20.5H.339V6.814h4.25ZM2.461,4.947A2.473,2.473,0,1,1,4.923,2.462,2.482,2.482,0,0,1,2.461,4.947ZM20.5,20.5H16.255V13.838c0-1.588-.032-3.624-2.21-3.624-2.21,0-2.548,1.725-2.548,3.51V20.5H7.251V6.814h4.076V8.681h.059a4.466,4.466,0,0,1,4.021-2.21c4.3,0,5.092,2.833,5.092,6.512V20.5Z" transform="translate(0 0)" fill="#fac306"/>
</svg>
