<svg id="Grupo_98" data-name="Grupo 98" xmlns="http://www.w3.org/2000/svg" width="13.5" height="13.5" viewBox="0 0 13.5 13.5">
  <path id="Trazado_15" data-name="Trazado 15" d="M48.654,48.648A1.031,1.031,0,0,0,47.2,48.6L43.53,52.014l-.3.28L42.938,52,41.021,50.1a1.03,1.03,0,0,0-1.454,1.461l2.912,2.9a1.025,1.025,0,0,0,.727.3,1,1,0,0,0,.7-.276L48.6,50.1a1.031,1.031,0,0,0,.051-1.456Z" transform="translate(-36.474 -44.887)" fill="#fac306"/>
  <path id="Trazado_16" data-name="Trazado 16" d="M13.054,4.338a1.632,1.632,0,0,1-.514,1.32l-.6.556a5.13,5.13,0,0,1,.029.536A5.227,5.227,0,1,1,10.5,3.118a1.63,1.63,0,0,1,2.016.129,6.706,6.706,0,1,0,.537,1.091Z" fill="#fac306"/>
</svg>
