<svg id="logo_prolec" xmlns="http://www.w3.org/2000/svg" width="221.913" height="63.436" viewBox="0 0 221.913 63.436">
  <g id="Grupo_74" data-name="Grupo 74">
    <path id="Trazado_140" data-name="Trazado 140" d="M21.86,30.273A19.9,19.9,0,0,0,.479,45.746,6.573,6.573,0,0,1,0,47.777v6.7a1.008,1.008,0,0,0,.721.23c2.44.011,4.882,0,7.321,0,.7,0,.978-.339.978-1.006,0-1.26-.008-2.52,0-3.78a10.506,10.506,0,0,1,4.6-8.785A10.795,10.795,0,0,1,28.977,55.735a10.784,10.784,0,0,1-11.739,4.5,19.734,19.734,0,0,0-5.272-.68A11.736,11.736,0,0,0,1.572,65.943,12.482,12.482,0,0,0,0,71.317V88.672c2.64,0,5.282-.033,7.922.02.744.015.874-.21.869-.9q-.046-7.215-.007-14.428a4.7,4.7,0,0,1,5.466-4.732,24.675,24.675,0,0,0,8.3.3c10.513-1.421,18.458-10.285,16.94-21.7A19.959,19.959,0,0,0,21.86,30.273Z" transform="translate(0 -25.27)" fill="#ababab"/>
    <path id="Trazado_141" data-name="Trazado 141" d="M846.015,34.368c-5.24-4.318-11.348-5.4-17.814-3.963a20.388,20.388,0,0,0-15.72,23.669,20.651,20.651,0,0,0,17.273,16.609,82.464,82.464,0,0,0,8.6.233c3.163,0,5.8-.02,8.445.015.651.008.879-.13.864-.833q-.073-3.521,0-7.043c.013-.689-.127-.91-.871-.9q-6.89.059-13.78.015a11.783,11.783,0,1,1-.241-23.561,10.987,10.987,0,0,1,7.465,2.35,5.559,5.559,0,0,1,2.215,4.45c-.037,2.157-1.136,3.464-3.159,3.679a3.448,3.448,0,0,1-3.832-2.918c-.1-.488-.282-.566-.719-.563-2.21.02-4.421.01-6.631.01q-1.537,0-1.361,1.556a12.323,12.323,0,0,0,23.133,4.11,13.95,13.95,0,0,0-3.859-16.907Z" transform="translate(-679.975 -24.953)" fill="#ababab"/>
    <path id="Trazado_142" data-name="Trazado 142" d="M1106.531,30.125A20.5,20.5,0,0,0,1108.177,71c2.267.047,4.536.007,6.8.007v.013c2.669,0,5.34-.015,8.01.011.544,0,.729-.114.721-.7-.036-2.376-.057-4.755.008-7.129.023-.833-.265-.959-1.007-.955-4.88.024-9.765.12-14.641-.031a11.7,11.7,0,0,1-10.854-14.2,11.779,11.779,0,0,1,22.132-2.559c.218.448.361.648.92.409q3.391-1.45,6.831-2.79c.579-.226.617-.444.379-.982a20.6,20.6,0,0,0-20.947-11.977Z" transform="translate(-911.076 -25.11)" fill="#ababab"/>
    <path id="Trazado_143" data-name="Trazado 143" d="M746.579,79.831c-2.326.029-4.65.007-6.976.015a19.757,19.757,0,0,1-4.029-.27,16.129,16.129,0,0,1-13.189-16.149c0-10.766-.015-21.531.024-32.3,0-.912-.269-1.058-1.089-1.038-2.267.055-4.536.046-6.8,0-.7-.013-.92.146-.916.884.033,5.813.018,11.625.018,17.438q0,7.559,0,15.118a26.269,26.269,0,0,0,.625,5.7A24.855,24.855,0,0,0,735.9,88.443c3.636.356,7.287.072,10.93.161.5.013.467-.264.467-.6,0-2.49-.021-4.982.011-7.473.008-.586-.187-.706-.734-.7Z" transform="translate(-597.446 -25.192)" fill="#ababab"/>
    <path id="Trazado_144" data-name="Trazado 144" d="M303.747,30.89c0-.479-.116-.653-.625-.63a22.882,22.882,0,0,0-3.329.381,19.817,19.817,0,0,0-15.823,17.81c-.239,3.6-.023,7.212-.1,10.142,0,4.369.029,8.06-.023,11.754-.011.8.243.933.964.918,2.324-.046,4.65-.036,6.975,0,.628.008.871-.094.868-.814-.033-6.641-.018-13.282-.021-19.923a12.687,12.687,0,0,1,.26-2.728,11,11,0,0,1,10.066-8.755c.448-.036.807-.013.8-.68-.042-2.49-.028-4.981-.008-7.471Z" transform="translate(-237.646 -25.333)" fill="#ababab"/>
    <path id="Trazado_145" data-name="Trazado 145" d="M1319.88,2.977A4.274,4.274,0,0,0,1316.759,0h-1.895a1.451,1.451,0,0,1-.27.163,4.131,4.131,0,0,0-2.761,5.31,4.179,4.179,0,0,0,5.257,2.643,4.078,4.078,0,0,0,2.792-5.139Zm-4.009,4.475a3.13,3.13,0,0,1-3.368-3.3,3.331,3.331,0,0,1,6.662.02,3.117,3.117,0,0,1-3.295,3.278Z" transform="translate(-1098.126)" fill="#ababab"/>
    <path id="Trazado_146" data-name="Trazado 146" d="M441.67,30.232a20.5,20.5,0,1,0,20.542,20.53,20.5,20.5,0,0,0-20.542-20.53Zm-.049,32.242a11.751,11.751,0,1,1,11.83-11.749A11.734,11.734,0,0,1,441.622,62.473Z" transform="translate(-352.599 -25.309)" fill="#ababab"/>
    <path id="Trazado_147" data-name="Trazado 147" d="M1331.275,13.662a1.111,1.111,0,0,0,.34-1.385,1.306,1.306,0,0,0-1.234-.778c-.371-.026-.749.024-1.118-.018-.574-.065-.846.1-.773.731a12.821,12.821,0,0,1,.011,1.458c0,.63.007,1.26,0,1.89,0,.306.151.379.426.386s.431-.073.414-.379c-.013-.228.018-.461-.007-.687-.046-.433.1-.576.563-.606.931-.057.833.537.817,1.115-.008.295-.036.557.417.562s.459-.238.426-.542c-.052-.483.2-1.04-.391-1.393-.265-.16-.006-.254.109-.355Zm-1.343-.1c-.487.029-.706-.12-.588-.6-.057-.457-.046-.822.579-.749.444.052.915.06.943.636.029.632-.435.687-.934.718Z" transform="translate(-1112.24 -9.601)" fill="#ababab"/>
  </g>
</svg>
