<svg xmlns="http://www.w3.org/2000/svg" width="239.522" height="77.598" viewBox="0 0 239.522 77.598">
  <g id="logo_heb" transform="translate(-446 -4958)">
    <path id="Trazado_156" data-name="Trazado 156" d="M227.96,66.288a34.322,34.322,0,0,1-24.975,10.818H39.3A34.42,34.42,0,0,1,14.308,66.288,37.668,37.668,0,0,1,3.98,40.13C3.98,19.741,19.826,3.15,39.3,3.15H202.985A34.293,34.293,0,0,1,227.96,14,37.613,37.613,0,0,1,238.277,40.13,37.767,37.767,0,0,1,227.96,66.293" transform="translate(444.14 4956.528)" fill="#fff"/>
    <path id="Trazado_157" data-name="Trazado 157" d="M224.438,63.388a34.622,34.622,0,0,1-24.575,10.178H38.823a34.757,34.757,0,1,1-.016-69.513h161.04a34.744,34.744,0,0,1,24.575,59.329m2.866-52.032A38.523,38.523,0,0,0,199.847,0H38.807A38.827,38.827,0,0,0,0,38.791,38.889,38.889,0,0,0,38.823,77.6h161.04A38.819,38.819,0,0,0,227.3,11.35" transform="translate(446 4958)" fill="#ababab"/>
    <path id="Trazado_158" data-name="Trazado 158" d="M206.509,14.13H45.469a31.281,31.281,0,0,0,0,62.562h161.04a31.281,31.281,0,0,0,0-62.562" transform="translate(439.354 4951.396)" fill="#ababab"/>
    <path id="Trazado_159" data-name="Trazado 159" d="M438.358,137.267a4.054,4.054,0,1,0-4.128-4.069,4.044,4.044,0,0,0,4.128,4.069M435.05,133.2a3.309,3.309,0,1,1,3.308,3.4,3.289,3.289,0,0,1-3.308-3.4m2.439.336h.82l1.236,2.024h.81l-1.294-2.04a1.263,1.263,0,0,0,1.2-1.31c0-.916-.549-1.342-1.662-1.342h-1.784v4.692h.7Zm0-.623v-1.449h.991c.474,0,1.007.154,1.007.7,0,.73-.533.746-1.129.746Z" transform="translate(243.052 4897.634)" fill="#ababab" fill-rule="evenodd"/>
    <g id="Grupo_76" data-name="Grupo 76" transform="translate(478.506 4979.438)">
      <path id="Trazado_160" data-name="Trazado 160" d="M61.041,40.25h17.72l-.474,15.936H89.073L88.4,40.463h17.246l-1.6,35.276H89.531l-.458-12.3H78.085l-.213,12.085H62.83L61.03,40.25Z" transform="translate(-61.03 -40.25)" fill="#fff"/>
      <path id="Trazado_161" data-name="Trazado 161" d="M187.055,41.075H231.2l-.458,9.72H204.334v6H223.29l-.229,7.025L204.1,63.808v6h25.763l-.245,6.535H188.68L187.05,41.07Z" transform="translate(-119.928 -40.633)" fill="#fff"/>
      <path id="Trazado_162" data-name="Trazado 162" d="M155.25,71.09h10.866v6.551H155.463Z" transform="translate(-105.066 -54.664)" fill="#fff"/>
      <path id="Trazado_163" data-name="Trazado 163" d="M279.72,77.84h10.423V71.06H279.72Z" transform="translate(-163.24 -54.65)" fill="#fff"/>
      <path id="Trazado_164" data-name="Trazado 164" d="M312.537,76.6,310.95,41.08h33.321c6.509,0,11.457,3.872,11.457,10.147,0,6.919-5.5,9.262-7.451,9.4l.032.277c3.26.714,5.257,2.407,5.257,6.732,0,8.5-8.043,8.991-12.341,8.991L312.532,76.6Z" transform="translate(-177.836 -40.638)" fill="#fff"/>
    </g>
    <path id="Trazado_165" data-name="Trazado 165" d="M343.69,90.023V83.53h6.051c1.811,0,3.611,1.039,3.611,3.169s-2.285,3.324-4.756,3.324H343.69Z" transform="translate(285.368 4918.96)" fill="#ababab"/>
    <path id="Trazado_166" data-name="Trazado 166" d="M343.92,65.677V58.21h6.019c2.423,0,4.815,1.369,4.815,3.856,0,2.072-2.818,3.67-5.3,3.611-2.1-.048-5.529,0-5.529,0" transform="translate(285.261 4930.794)" fill="#ababab"/>
  </g>
</svg>
