<svg id="logo_cleber" xmlns="http://www.w3.org/2000/svg" width="227.077" height="63.436" viewBox="0 0 227.077 63.436">
  <path id="Trazado_124" data-name="Trazado 124" d="M154.9,92.131a132.422,132.422,0,0,1,9.12-10.33c.6-.6,1.274-.325,1.922-.284A82.61,82.61,0,0,0,194.3,78.974a30.505,30.505,0,0,0,10.076-4.625,9.243,9.243,0,0,0,3.4-4.144c.853-2.3.132-4.271-1.394-6.012-2.151-2.452-5-3.855-7.953-5.072-.661-.272-1.332-.526-2.2-.869,1.5-.837,2.827-1.572,4.148-2.313a1.11,1.11,0,0,1,1.039-.04c4.806,2.023,9.357,4.431,12.795,8.49,4.346,5.131,4.343,11.033-.033,16.142-3.646,4.256-8.445,6.8-13.576,8.751a78.058,78.058,0,0,1-28.176,4.7,83.126,83.126,0,0,1-17.056-1.671,4.108,4.108,0,0,1-.468-.181Z" transform="translate(-127.938 -46.079)" fill="#ababab"/>
  <path id="Trazado_125" data-name="Trazado 125" d="M157.743,9.209C151.8,11.461,145.9,13.79,140.194,16.6c-17.98,8.845-33.66,20.585-46.114,36.377A86.465,86.465,0,0,0,83.042,70.784c-.038-.686-.075-1.051-.075-1.419,0-4.216.122-8.435-.047-12.643a14.666,14.666,0,0,1,1.939-7.641C88.11,42.967,93.015,38.354,98.5,34.3c8.929-6.605,18.866-11.362,29.111-15.526a259.561,259.561,0,0,1,29.025-9.7,6.781,6.781,0,0,1,.8-.122c.3-.148.336.016.3.258Z" transform="translate(-68.477 -7.348)" fill="#ababab"/>
  <path id="Trazado_126" data-name="Trazado 126" d="M21.781,55.4a30.8,30.8,0,0,0-6.611,9.143c-.23.461-.416.738-1,.461-4.177-1.97-8.116-4.27-11.1-7.9C-1,52.131-1.043,46.451,3.019,41.479c3.645-4.463,8.57-7.06,13.832-9.067,10.041-3.829,20.5-4.969,31.177-4.647a81.831,81.831,0,0,1,18.34,2.616c-2.278.916-4.264,2.064-6.39,2.452-1.657.3-3.485-.386-5.244-.553-12.151-1.152-24.141-.677-35.723,3.664a21.635,21.635,0,0,0-6.908,4C8.41,43.23,8.386,46.993,12.042,50.3a25.556,25.556,0,0,0,8.405,4.628c.376.143.761.268,1.33.466Z" transform="translate(0.007 -22.889)" fill="#ababab"/>
  <path id="Trazado_127" data-name="Trazado 127" d="M802.766,102.669c0-3.307.021-6.616-.016-9.923-.009-.813.11-1.21,1.084-1.2q6.752.076,13.5,0c.875-.009,1.043.292,1.044,1.095,0,2.734.037,2.734-2.673,2.734-2.456,0-4.912.042-7.366-.021-.936-.024-1.22.31-1.128,1.175.134,1.248-.55,2.875.3,3.645.661.6,2.25.195,3.429.205,1.955.016,3.911.024,5.866-.007.682-.01.942.179.975.914.129,2.907.156,2.9-2.764,2.9-2.228,0-4.456.028-6.684-.014-.792-.016-1.173.167-1.131,1.044.059,1.22.05,2.447,0,3.669-.031.776.254,1.008,1.024,1,2.91-.038,5.822.042,8.729-.044,1.178-.035,1.455.367,1.424,1.467-.068,2.367-.014,2.369-2.332,2.369-3.956,0-7.912-.04-11.867.026-1.1.019-1.481-.219-1.452-1.389.084-3.215.03-6.433.03-9.65Z" transform="translate(-663.01 -75.614)" fill="#ababab"/>
  <path id="Trazado_128" data-name="Trazado 128" d="M1040.849,102.621c0-3.307.031-6.614-.021-9.919-.014-.9.266-1.142,1.151-1.133q6.681.06,13.364,0c.91-.009,1.144.272,1.138,1.154-.014,2.675.024,2.675-2.614,2.677-2.5,0-5,.028-7.5-.016-.813-.014-1.149.2-1.084,1.06.092,1.255-.385,2.884.244,3.678.675.853,2.381.235,3.634.27,1.908.054,3.819.037,5.727,0,.7-.012.933.225.973.929.162,2.893.186,2.891-2.666,2.891-2.273,0-4.546.031-6.818-.016-.823-.017-1.138.214-1.091,1.069a35.269,35.269,0,0,1,0,3.667c-.04.809.292.983,1.034.975,3-.033,6,.016,9-.033.874-.014,1.17.205,1.168,1.123-.009,2.7.035,2.7-2.693,2.7-3.864,0-7.728-.035-11.59.023-1.029.016-1.408-.193-1.38-1.318.083-3.26.03-6.522.03-9.784Z" transform="translate(-859.66 -75.631)" fill="#ababab"/>
  <path id="Trazado_129" data-name="Trazado 129" d="M559.69,99.7a9.865,9.865,0,0,1,5.507-9.068,11.907,11.907,0,0,1,10.161-.2,7.08,7.08,0,0,1,4.186,4.719c.259.855.239,1.422-.9,1.274a6.9,6.9,0,0,0-1.09-.005c-1.213.035-2.137.028-2.936-1.389-1.448-2.566-6.691-2.331-8.8.167-2.254,2.675-2.277,8.548-.042,11.223a5.778,5.778,0,0,0,9.411-.956.927.927,0,0,1,.957-.557,23.077,23.077,0,0,0,2.454-.012c1.1-.1,1.2.4.982,1.29-.858,3.418-3.9,5.744-7.874,5.984-7.5.453-12.043-3.85-12.018-12.469Z" transform="translate(-462.272 -73.836)" fill="#ababab"/>
  <path id="Trazado_130" data-name="Trazado 130" d="M696.423,102.616c0-3.307.026-6.616-.017-9.923-.01-.858.193-1.178,1.124-1.189,3.427-.037,3.427-.073,3.427,3.37,0,4.576.037,9.154-.026,13.729-.014,1.053.31,1.278,1.3,1.251,2.727-.068,5.457,0,8.184-.038.75-.01,1.008.179,1.025.973.061,2.851.094,2.849-2.806,2.849-3.547,0-7.094-.047-10.64.026-1.2.024-1.654-.219-1.61-1.535.108-3.168.035-6.343.035-9.514Z" transform="translate(-575.174 -75.571)" fill="#ababab"/>
  <path id="Trazado_131" data-name="Trazado 131" d="M511.4,7.833c-.1-.085-.2-.171-.3-.258a1.678,1.678,0,0,1,1.058-.306c.252-.1.353-.007.313.254Z" transform="translate(-422.139 -5.972)" fill="#ababab"/>
  <path id="Trazado_132" data-name="Trazado 132" d="M541.008.09c-.223.235-.614.348-.7.225-.219-.32.148-.291.329-.313A1.169,1.169,0,0,1,541.008.09Z" transform="translate(-446.208 0.001)" fill="#ababab"/>
  <path id="Trazado_133" data-name="Trazado 133" d="M528.033,3.285a.782.782,0,0,1,1.023-.1l-1.013.364c-.094-.054-.127-.11-.1-.169S528,3.285,528.033,3.285Z" transform="translate(-436.044 -2.512)" fill="#ababab"/>
  <path id="Trazado_134" data-name="Trazado 134" d="M523.115,4.417c.005.087.009.172.01.259l-.836.27c-.111-.075-.275-.091-.31-.259A1.582,1.582,0,0,1,523.115,4.417Z" transform="translate(-431.126 -3.644)" fill="#ababab"/>
  <path id="Trazado_135" data-name="Trazado 135" d="M518.016,5.99c.1.087.207.172.31.259l-.832.249-.313-.254A1.073,1.073,0,0,1,518.016,5.99Z" transform="translate(-427.161 -4.947)" fill="#ababab"/>
  <path id="Trazado_136" data-name="Trazado 136" d="M931.466,102.158c2.372-.785,3.38-2.017,3.546-4.23.273-3.664-1.807-6.125-5.521-6.266-3.448-.131-6.9-.031-10.355-.084-.823-.012-.977.332-.975,1.051q.026,10.049,0,20.1c0,.768.245,1,1.017.994,3.544-.038,7.088.031,10.63-.037,3.324-.064,5.462-1.93,5.846-5.095.31-2.543-.289-5.4-4.182-6.435Zm-7.883-6.764c.766.045,1.537.01,2.306.01v.035c.86,0,1.721-.045,2.578.01a2.028,2.028,0,0,1,2.122,2.277c.047,1.539-.7,2.566-2.1,2.639-1.714.091-3.438.024-5.156.052-.547.009-.694-.235-.684-.733.021-1.126.047-2.256-.009-3.38-.035-.731.251-.947.94-.907Zm4.663,14.5c-.726.023-1.453,0-2.181,0a.531.531,0,0,1,0,.054c-1.079-.052-2.51.3-3.149-.258-.757-.658-.221-2.127-.244-3.241-.045-2.23-.014-2.231,2.179-2.231,1.137,0,2.273-.03,3.408.014,2.08.082,2.962.976,2.938,2.908-.023,1.836-.928,2.687-2.95,2.748Z" transform="translate(-758.348 -75.638)" fill="#ababab"/>
  <path id="Trazado_137" data-name="Trazado 137" d="M1169.479,104.572c3.533-1.215,5.188-3.669,4.924-7.086-.238-3.081-2.228-5.187-5.551-5.777a16.24,16.24,0,0,0-2.717-.158c-2.908-.019-5.818.049-8.725-.033-1.166-.033-1.547.235-1.532,1.478.073,5.8.033,11.594.033,17.39,0,3.324,0,3.283,3.337,3.3,1,.005,1.218-.341,1.2-1.251-.056-2.172-.03-4.348-.005-6.52,0-.36-.212-.822.331-1.055a4.872,4.872,0,0,1,4.419,1.126c1.751,2.254,3.492,4.518,5.25,6.767.324.414.583.922,1.255.914,1.519-.021,3.039-.007,4.793-.007-2.412-3.128-4.67-6.054-7-9.082Zm-1.8-3.685c-2.171.131-4.352.075-6.527.124-.634.014-.745-.313-.736-.844.019-1.311.043-2.623-.007-3.932-.03-.754.3-.917.969-.891,1,.04,2,.01,2.994.01v.063c1.088,0,2.181-.07,3.264.017,1.526.122,2.27,1.032,2.313,2.646.045,1.673-.7,2.715-2.268,2.809Z" transform="translate(-954.69 -75.586)" fill="#ababab"/>
  <g id="Grupo_73" data-name="Grupo 73" transform="translate(221.754 16.01)">
    <path id="Trazado_138" data-name="Trazado 138" d="M1285.924,101.265a.706.706,0,0,0-.759-.715h-.916v2.338h.456v-.933h.329l.456.933h.529l-.522-1.008A.629.629,0,0,0,1285.924,101.265Zm-.788.308h-.43v-.618h.43a.309.309,0,1,1,0,.616Z" transform="translate(-1282.473 -99.058)" fill="#ababab"/>
    <path id="Trazado_139" data-name="Trazado 139" d="M1276.7,91.98a2.661,2.661,0,1,0,2.661,2.661A2.664,2.664,0,0,0,1276.7,91.98Zm0,4.827a2.165,2.165,0,1,1,2.165-2.165A2.168,2.168,0,0,1,1276.7,96.807Z" transform="translate(-1274.04 -91.98)" fill="#ababab"/>
  </g>
</svg>
