<svg id="Logo_de_Bancrea" xmlns="http://www.w3.org/2000/svg" xmlns:xlink="http://www.w3.org/1999/xlink" width="227.984" height="63.561" viewBox="0 0 227.984 63.561">
  <defs>
    <clipPath id="clip-path">
      <path id="path2" d="M3.711,34.2a42.1,42.1,0,0,0-.7,7.241c-.223,13.227,8.35,29.168,28.71,31.569,16.839,2,31.079-8.758,34.465-21.994.075-.3-.067-.356-.116-.356s-.177.038-.243.24c-2.213,6.285-10.169,17.134-27.514,17.2C24.01,68.145,7.9,59.416,4.177,43.24a26.357,26.357,0,0,1-.2-9c0-.127,0-.226-.087-.237H3.873c-.093,0-.133.113-.159.194m1.448,1.2c0,17.742,17.195,29.206,32.183,29.524C55.8,65.306,66.289,53.89,66.576,40.422c.145-7.009-1.883-11.77-3.244-13.714a.747.747,0,0,0-.18-.211.151.151,0,0,0-.249.148,1.112,1.112,0,0,0,.078.243,19.167,19.167,0,0,1,1.625,7.53c.1,10.568-9.847,19.254-22.857,19.04-20.5-.327-29.863-14.921-29.837-25.941.02-10.49,7.275-14.8,7.976-15.182C18.913,12.87,5.147,20.7,5.147,35.4M19.889,12.334l.023-.014-.023.014" transform="translate(-3.005 -12.32)" fill="none"/>
    </clipPath>
    <linearGradient id="linear-gradient" x1="1.143" y1="2.958" x2="1.164" y2="2.958" gradientUnits="objectBoundingBox">
      <stop offset="0" stop-color="#ababab"/>
      <stop offset="0.04" stop-color="#a4cd39"/>
      <stop offset="0.31" stop-color="#97c73b"/>
      <stop offset="0.8" stop-color="#76b642"/>
      <stop offset="1" stop-color="#66ae45"/>
    </linearGradient>
    <clipPath id="clip-path-2">
      <path id="path16" d="M35.769,12.316a18.97,18.97,0,0,0-2.027,9.847A29.211,29.211,0,0,1,53.583,14.4,28.891,28.891,0,0,1,77.011,26.227c.153.209.319.29.478.185s.1-.405.064-.492A27.943,27.943,0,0,0,50.933,7.963a29.226,29.226,0,0,0-15.165,4.353m5.981-6.459a16.207,16.207,0,0,0-5.677,5.894A30.3,30.3,0,0,1,53.436,6.217a28.548,28.548,0,0,1,17.626,6.03c.29.209.432.22.533.1s-.014-.348-.29-.675A24.233,24.233,0,0,0,52.735,3.248,24.486,24.486,0,0,0,41.749,5.855" transform="translate(-33.701 -3.247)" fill="none"/>
    </clipPath>
  </defs>
  <g id="g40" transform="translate(0 2.628)" clip-path="url(#clip-path)">
    <rect id="rect38" width="63.923" height="62.7" transform="translate(-0.222)" fill="url(#linear-gradient)"/>
  </g>
  <g id="g44" transform="translate(8.89 0)" clip-path="url(#clip-path-2)">
    <rect id="rect42" width="44.448" height="23.26" transform="translate(-0.498 0.001)" fill="url(#linear-gradient)"/>
  </g>
  <path id="path46" d="M288.356,91.157H281.3v11.359h5.737c5.636,0,8.225-.851,8.225-5.6,0-3.559-1.859-5.761-6.9-5.761m-2.717-13.5H281.3V87.768h6.812c5.147,0,5.72-2.14,5.72-5.147,0-4.8-3.1-4.964-8.191-4.964m1.051,28.325H277.35V74.15H285.6c6.994,0,12.208,1.115,12.208,8.471a6.823,6.823,0,0,1-3.968,6.5,7.874,7.874,0,0,1,5.4,7.649c0,7.663-4.553,9.207-12.555,9.207" transform="translate(-197.894 -53.615)" fill="url(#linear-gradient)"/>
  <path id="path48" d="M378.938,113.452h-3.513c-4.967,0-6.983.579-6.983,4.359v1.158c0,2.656,1.628,3.38,3.939,3.38a13.8,13.8,0,0,0,6.557-1.88Zm.165,11.3v-1.584a13.174,13.174,0,0,1-7.49,2.184c-4.42,0-7.023-1.975-7.023-6.682V117.8c0-6.21,4.237-7.281,10.835-7.281h3.513v-1.7c0-4.075-.817-4.973-5.526-4.973a58.273,58.273,0,0,0-7.29.516v-2.749a27.817,27.817,0,0,1,7.588-1.022c7.837,0,9.085,2.867,9.085,8.228v15.929Z" transform="translate(-259.867 -72.397)" fill="url(#linear-gradient)"/>
  <path id="path50" d="M460.528,124.765V109.728c0-4.289-.686-5.827-3.939-5.827-1.848,0-4.284.721-7.414,2.094v18.768H445.36V101.2h3.814v1.828c2.746-1.413,5.213-2.436,7.846-2.436,6.25,0,7.365,3.386,7.365,9.129v15.037Z" transform="translate(-317.244 -72.397)" fill="url(#linear-gradient)"/>
  <path id="path52" d="M536.177,125.393c-6.424,0-9.427-3.9-9.427-10.62V111.21c0-6.771,3-10.58,9.427-10.58a25,25,0,0,1,6.725.811v2.916c-2.873-.29-4.924-.429-6.172-.429-3.765,0-6.128,1.416-6.128,7.281v3.562c0,5.862,2.352,7.319,6.128,7.319,1.24,0,3.3-.127,6.172-.429v2.914a24.912,24.912,0,0,1-6.725.817" transform="translate(-375.062 -72.426)" fill="url(#linear-gradient)"/>
  <path id="path54" d="M600.309,106.062v18.724H596.5V101.22h3.765V103.1a13.233,13.233,0,0,1,8.4-2.482v3.426a17.412,17.412,0,0,0-8.359,2.027" transform="translate(-424.61 -72.419)" fill="url(#linear-gradient)"/>
  <path id="path56" d="M661.852,110.828c0-2.873-.6-6.855-6.082-6.855-5.4,0-6.134,3.982-6.134,6.855v.429h12.213Zm-12.254,3.6v.472c0,4.055.594,7.154,7.11,7.154a54.7,54.7,0,0,0,8.208-.684v3.082a33.885,33.885,0,0,1-8.4.944c-8.353,0-10.8-3.73-10.8-11.359v-1.793c0-7.414,3.3-11.611,9.983-11.611,6.951,0,10.117,4.153,10.117,12.083v1.715Z" transform="translate(-459.575 -72.426)" fill="url(#linear-gradient)"/>
  <path id="path58" d="M741.651,113.452h-3.516c-4.97,0-6.983.579-6.983,4.359v1.158c0,2.656,1.628,3.38,3.939,3.38a13.769,13.769,0,0,0,6.557-1.88Zm.177,11.3v-1.584a13.224,13.224,0,0,1-7.5,2.184c-4.422,0-7.032-1.975-7.032-6.682V117.8c0-6.21,4.237-7.281,10.838-7.281h3.516v-1.7c0-4.075-.811-4.973-5.526-4.973a58.192,58.192,0,0,0-7.284.516v-2.749a27.717,27.717,0,0,1,7.582-1.022c7.84,0,9.086,2.867,9.086,8.228v15.929Z" transform="translate(-517.528 -72.397)" fill="url(#linear-gradient)"/>
  <path id="path60" d="M277.35,13.27h4.223c1.636,0,3.319.75,3.319,2.722a2.415,2.415,0,0,1-1.883,2.372v.041a2.575,2.575,0,0,1,2.349,2.607c0,2.355-2.051,3.09-4.1,3.09h-3.91Zm1.926,4.405h1.758c1.286,0,1.929-.55,1.929-1.361,0-.933-.643-1.393-2.1-1.393h-1.59Zm0,4.785h1.775c.993,0,2.372-.168,2.372-1.59,0-1.132-.733-1.529-2.294-1.529h-1.854Z" transform="translate(-197.894 -10.367)" fill="url(#linear-gradient)"/>
  <path id="path62" d="M323.255,13.27h1.668L329.589,24.1h-2.213l-1.011-2.479h-4.683l-.967,2.482H318.56Zm2.447,6.7-1.665-4.4-1.7,4.405Z" transform="translate(-227.168 -10.367)" fill="url(#linear-gradient)"/>
  <path id="path64" d="M371.92,13.27h2.554l5.248,8.046h.04V13.27h1.926V24.1h-2.447l-5.364-8.3h-.029v8.3h-1.926Z" transform="translate(-265.074 -10.367)" fill="url(#linear-gradient)"/>
  <path id="path66" d="M431.077,15.153a2.941,2.941,0,0,0-2.279-1.069,3.676,3.676,0,0,0-3.719,3.869,3.715,3.715,0,0,0,3.719,4.023,3.05,3.05,0,0,0,2.433-1.318l1.59,1.156a4.79,4.79,0,0,1-4.037,1.929A5.426,5.426,0,0,1,423.06,18.1a5.445,5.445,0,0,1,5.723-5.735,4.709,4.709,0,0,1,3.794,1.715Z" transform="translate(-301.403 -9.721)" fill="url(#linear-gradient)"/>
  <path id="path68" d="M476.073,12.317a5.378,5.378,0,0,1,5.766,5.674,5.519,5.519,0,0,1-5.766,5.706,5.426,5.426,0,0,1-5.723-5.645A5.448,5.448,0,0,1,476.073,12.317Zm0,9.636a3.723,3.723,0,0,0,3.733-4.023,3.727,3.727,0,1,0-7.449,0,3.734,3.734,0,0,0,3.727,4.026Z" transform="translate(-334.996 -9.689)" fill="url(#linear-gradient)"/>
</svg>
