<svg id="logo_europartners" xmlns="http://www.w3.org/2000/svg" width="269.384" height="61.998" viewBox="0 0 269.384 61.998">
  <g id="Grupo_72" data-name="Grupo 72">
    <path id="Trazado_106" data-name="Trazado 106" d="M21.378,54.852H7.58A.811.811,0,0,1,7,54.463c-.361-.8-.389-2.332.583-2.332H19.435s3.3-1.749,3.5-2.915,0-8.59,0-8.59S22.313,36,19.416,36H3.314S0,36.389,0,40.664.194,58.35.194,58.35s-1.048,3.5,3.654,3.5h17.41ZM8.649,44.357h6.025a.68.68,0,1,1,0,1.36H8.649a.68.68,0,1,1,0-1.36Z" transform="translate(0 -29.003)" fill="#ababab"/>
    <path id="Trazado_107" data-name="Trazado 107" d="M153.037,57.625V36h-7.7V52.908s-.389,1.52-1.52,1.52h-5.8s-1.44-.194-1.44-1.44V36H129.34V57.561s.661,4.287,4.767,4.287h14.706S153.037,60.982,153.037,57.625Z" transform="translate(-104.203 -29.003)" fill="#ababab"/>
    <path id="Trazado_108" data-name="Trazado 108" d="M265.068,61.848H272.2V45.395s-.121-1.038,1.2-1.038h5.615V36H268.456s-3.446.194-3.446,4.859.06,20.99.06,20.99Z" transform="translate(-213.505 -29.003)" fill="#ababab"/>
    <path id="Trazado_109" data-name="Trazado 109" d="M359.08,61.654h14.827a3.08,3.08,0,0,0,3.08-3.08V39.08a3.08,3.08,0,0,0-3.08-3.08H359.08A3.08,3.08,0,0,0,356,39.08V58.572a3.08,3.08,0,0,0,3.08,3.08ZM362.34,46.6a3.08,3.08,0,0,1,3.08-3.08h2.268a3.08,3.08,0,0,1,3.08,3.08v4.781a3.08,3.08,0,0,1-3.08,3.08H365.42a3.08,3.08,0,0,1-3.08-3.08Z" transform="translate(-286.812 -29.003)" fill="#ababab"/>
    <path id="Trazado_110" data-name="Trazado 110" d="M1039.258,62.048h17.41l.12-7h-13.8a.811.811,0,0,1-.583-.389c-.362-.8-.389-2.332.583-2.332h11.855s3.3-1.749,3.5-2.915,0-8.59,0-8.59-.62-4.626-3.518-4.626h-16.1s-3.314.389-3.314,4.664.194,17.686.194,17.686S1034.557,62.048,1039.258,62.048Zm4.8-17.491h6.025a.68.68,0,1,1,0,1.36h-6.025a.68.68,0,0,1,0-1.36Z" transform="translate(-834.179 -29.165)" fill="#ababab"/>
    <path id="Trazado_111" data-name="Trazado 111" d="M616.874,61.693h16.1c1.982,0,3.148-1.011,3.148-2.565,0-4.276-.029-15.159-.029-19.785A3.3,3.3,0,0,0,632.442,36h-17.41l-.121,6.841h13.8c1.2,0,1.2,2.721,0,2.721H616.855a2.737,2.737,0,0,0-3.08,2.876c0,4.276-.054,10.689-.054,10.689a2.96,2.96,0,0,0,3.152,2.565Zm4.742-9.717h6.025a.68.68,0,1,1,0,1.36h-6.025a.68.68,0,0,1,0-1.36Z" transform="translate(-494.444 -29.003)" fill="#ababab"/>
    <path id="Trazado_112" data-name="Trazado 112" d="M747.738,62.048h7.131V45.595s-.12-1.038,1.2-1.038h5.615V36.2H751.126s-3.446.194-3.446,4.859.06,20.99.06,20.99Z" transform="translate(-602.369 -29.165)" fill="#ababab"/>
    <path id="Trazado_113" data-name="Trazado 113" d="M1167.038,63.438h7.131V46.983s-.12-1.038,1.2-1.038h5.615V37.59h-10.561s-3.446.194-3.446,4.859.06,20.99.06,20.99Z" transform="translate(-940.178 -30.284)" fill="#ababab"/>
    <path id="Trazado_114" data-name="Trazado 114" d="M896.532,61.768h7.241V44.78c0-1.246,1.44-1.44,1.44-1.44h5.8c1.131,0,1.52,1.52,1.52,1.52V61.768h7.7V40.143c0-3.356-4.223-4.223-4.223-4.223H901.3c-4.107,0-4.769,4.287-4.769,4.287V61.768Z" transform="translate(-722.29 -28.939)" fill="#ababab"/>
    <path id="Trazado_115" data-name="Trazado 115" d="M844.754,24.8h-2.28c-1.325,0-1.2-1.038-1.2-1.038V14.382h3.483V7h-3.483V0H834.14s-.06,23.631-.06,28.3,3.446,4.859,3.446,4.859h7.228Z" transform="translate(-671.977)" fill="#ababab"/>
    <path id="Trazado_116" data-name="Trazado 116" d="M1257.762,55.017h12.094a1.218,1.218,0,0,1,.61.8V57.24c0,.742-1.339,1-1.339,1H1254.25v6.231h19.029A3.9,3.9,0,0,0,1277,61.7V52.066c0-2.692-3.772-3.123-3.772-3.123h-12.094a1.218,1.218,0,0,1-.61-.8V46.72c0-.742,1.339-1,1.339-1h14.877V39.49h-19.029a3.9,3.9,0,0,0-3.716,2.768v9.634c0,2.692,3.772,3.123,3.772,3.123Z" transform="translate(-1010.278 -31.815)" fill="#ababab"/>
    <path id="Trazado_117" data-name="Trazado 117" d="M479,68.417h8.357V61.362h12.5a3.271,3.271,0,0,0,3.432-3.08V38.79a3.27,3.27,0,0,0-3.432-3.08L479,35.768ZM487.357,44.9a3.489,3.489,0,0,1,3.051-1.677h2.527a3.272,3.272,0,0,1,3.432,3.08v4.781a3.27,3.27,0,0,1-3.432,3.08h-2.527a3.489,3.489,0,0,1-3.051-1.677V44.9Z" transform="translate(-385.907 -28.77)" fill="#ababab"/>
    <path id="Trazado_118" data-name="Trazado 118" d="M212.9,226.354l-2.527-2.138,8.357-7.968-2.915-2.19-8.163,8.409-2.519-2.616L212.707,211l-20.018.777L182,223.633l14.576.389,9.368,7.968H231.17l12.386-13.313-20.549-2.429Z" transform="translate(-146.628 -169.992)" fill="#ababab"/>
    <path id="Trazado_119" data-name="Trazado 119" d="M535.849,211l7.572,8.851-2.519,2.616-8.163-8.409-2.915,2.19,8.357,7.968-2.527,2.138-10.106-10.106L505,218.677l12.386,13.313h25.227l9.368-7.968,14.576-.389-10.689-11.855Z" transform="translate(-406.854 -169.992)" fill="#ababab"/>
    <path id="Trazado_120" data-name="Trazado 120" d="M1059.751,239.25a3.182,3.182,0,0,0-1.965.719c-.717.568-1.077,1.191-2.021,3.786s-1.038,3.218-.735,3.786a1.511,1.511,0,0,0,1.442.719,3.128,3.128,0,0,0,1.945-.719c.717-.568,1.1-1.193,2.041-3.786s1.02-3.218.715-3.786a1.479,1.479,0,0,0-1.423-.719Z" transform="translate(-849.861 -192.752)" fill="#ababab"/>
    <path id="Trazado_121" data-name="Trazado 121" d="M1003.434,239.83h-2.48l-1.294,3.559h2.48a2.74,2.74,0,0,0,2.56-1.778c.379-1.042-.109-1.778-1.263-1.778Z" transform="translate(-805.377 -193.219)" fill="#ababab"/>
    <path id="Trazado_122" data-name="Trazado 122" d="M1194.653,239.83h-2.461l-1.343,3.691h2.46a2.771,2.771,0,0,0,2.618-1.837c.4-1.1-.082-1.854-1.275-1.854Z" transform="translate(-959.409 -193.219)" fill="#ababab"/>
    <path id="Trazado_123" data-name="Trazado 123" d="M966.318,204H880.163a7.027,7.027,0,0,0-6.058,4.441l-4.9,13.468c-.892,2.453.371,4.441,2.824,4.441h86.155a7.028,7.028,0,0,0,6.058-4.441l4.9-13.468C970.034,205.988,968.771,204,966.318,204Zm-80.638,16.654a7.155,7.155,0,0,1-4.332,1.553,3.334,3.334,0,0,1-3.1-1.477c-.867-1.362-.216-3.047.632-5.376s1.423-4.011,3.281-5.376a6.929,6.929,0,0,1,4.171-1.477c1.874,0,2.729.511,3.5,1.722L887.407,212a1.968,1.968,0,0,0-1.926-1.154,3.128,3.128,0,0,0-1.945.719c-.717.567-1.077,1.191-2.021,3.786s-1.046,3.236-.74,3.8a1.48,1.48,0,0,0,1.43.7,3.285,3.285,0,0,0,2.074-.758,4.092,4.092,0,0,0,1.255-1.837l.173-.472h-2.385l.8-2.2h5.016l-.7,1.93a8.107,8.107,0,0,1-2.75,4.126Zm12.567-4.373.894,5.811h-3.047l-.674-5.376h-1.893l-1.957,5.376h-2.631l4.905-13.476h5.28c2.744,0,3.691,1.874,2.871,4.126a5.9,5.9,0,0,1-3.749,3.539Zm15.023-.927c-.847,2.328-1.442,4.013-3.3,5.376a6.886,6.886,0,0,1-4.171,1.477,3.371,3.371,0,0,1-3.115-1.477c-.867-1.362-.216-3.047.632-5.376s1.423-4.011,3.281-5.376a6.941,6.941,0,0,1,4.19-1.477,3.334,3.334,0,0,1,3.1,1.477c.867,1.362.235,3.047-.612,5.376Zm4.942,6.851c-2.764,0-4.278-1.874-3.236-4.732l3.224-8.858h2.631l-3.189,8.763c-.566,1.551.006,2.48,1.425,2.48a3.5,3.5,0,0,0,3.25-2.48l3.189-8.763h2.612l-3.224,8.858a7.334,7.334,0,0,1-6.682,4.732Zm20.98-9.387a6.5,6.5,0,0,1-5.976,4.2h-2.593l-1.846,5.073h-2.632l4.905-13.476h5.224c2.783,0,3.751,1.912,2.919,4.2Z" transform="translate(-700.044 -164.353)" fill="#ababab"/>
  </g>
</svg>
