<?xml version="1.0" encoding="UTF-8"?>
<svg id="Capa_2" data-name="Capa 2" xmlns="http://www.w3.org/2000/svg" viewBox="0 0 653 653" >
  <defs>
    <style>
      .cls-1 {
        fill: #fff;
      }

      .cls-2 {
        fill: none;
      }

      .cls-3 {
        fill: #ffe708;
      }

  }
    </style>
  </defs>
  <g id="capa_2-2"  data-name="Capa 2">
    <g >
      <g id="yellow">
        <path class="cls-3" d="M181.85,585.21c-5.29-4.48-10.49-9.15-16.22-13-9.01-6.06-17.28-12.98-25.43-20.09-12.42-10.83-23.39-23.02-33.4-36.09-6.38-8.34-12.31-16.99-17.5-26.14-5.15-9.09-9.94-18.33-14.13-27.94-4.06-9.3-7.55-18.76-10.83-28.33-2.93-8.56-4.82-17.41-7.02-26.17-2.2-8.74-3.66-17.64-4.58-26.53-1.33-12.98-1.28-26.1-2.23-39.13-.39-5.34-2.49-7.81-6.81-7.08-4.54,.05-7.15,2.8-7.46,8-.47,7.9-1.48,15.75-.06,23.71,1.56,8.73,2.41,17.59,3.77,26.36,.71,4.6,2.1,9.1,2.71,13.71,1.33,9.99,3.89,19.67,6.98,29.22,2.14,6.61,4.13,13.25,6.7,19.75,3.89,9.85,8.19,19.5,13.08,28.84,4.06,7.74,8.59,15.26,13.31,22.66,8.26,12.94,17.6,25.05,27.76,36.47,15.86,17.83,33.91,33.29,53.45,47,3.54,2.48,6.98,5.02,11.23,6.26,4.69,1.37,6.38,.77,8.73-3.51,1.5-2.73,.99-5.38-2.05-7.96Z"/>
        <path class="cls-3" d="M616.92,344.39c-.25-5.2-2.82-7.98-7.36-8.08-4.3-.78-6.43,1.66-6.89,7-1.11,13.02-1.21,26.14-2.69,39.11-1.02,8.87-2.58,17.76-4.89,26.47-2.31,8.74-4.3,17.56-7.33,26.09-3.39,9.53-7,18.94-11.16,28.2-4.31,9.57-9.2,18.75-14.46,27.78-5.29,9.08-11.32,17.67-17.8,25.93-10.16,12.95-21.27,25.01-33.82,35.7-8.23,7.01-16.58,13.83-25.66,19.79-5.78,3.79-11.03,8.4-16.38,12.81-3.07,2.54-3.61,5.18-2.14,7.93,2.29,4.3,3.98,4.92,8.68,3.61,4.26-1.19,7.74-3.69,11.3-6.13,19.7-13.48,37.93-28.72,54-46.36,10.29-11.3,19.77-23.3,28.18-36.14,4.81-7.35,9.43-14.81,13.58-22.51,5-9.28,9.41-18.88,13.42-28.69,2.64-6.47,4.71-13.08,6.93-19.67,3.21-9.51,5.88-19.16,7.33-29.13,.67-4.6,2.11-9.09,2.87-13.68,1.46-8.76,2.41-17.6,4.08-26.32,1.51-7.94,.6-15.81,.22-23.71Z"/>
        <path class="cls-3" d="M479.29,101.63c2.68-4.08,2.41-5.85-1-9.35-3.09-3.17-6.95-5.02-10.8-6.98-21.28-10.82-43.4-19.49-66.59-25.12-14.85-3.61-29.93-6.16-45.23-7.38-8.75-.7-17.52-1.17-26.26-1.11-10.54,.06-21.08,.81-31.61,1.99-6.94,.78-13.74,2.15-20.58,3.36-9.88,1.75-19.63,4.03-29.07,7.55-4.36,1.62-8.98,2.51-13.38,4.05-8.38,2.93-16.6,6.33-25.05,9.05-7.7,2.48-14.16,7.06-20.91,11.18-4.45,2.72-5.64,6.3-3.56,10.34,1.38,4.15,4.55,4.85,9.45,2.68,11.95-5.27,23.51-11.48,35.6-16.4,8.27-3.37,16.82-6.26,25.57-8.42,8.77-2.17,17.47-4.66,26.41-6.09,9.99-1.6,19.98-2.95,30.1-3.74,10.46-.81,20.86-.92,31.31-.64,10.51,.28,20.94,1.45,31.29,3.17,16.24,2.7,32.15,6.66,47.55,12.54,10.1,3.86,20.09,7.91,29.67,13.02,6.09,3.25,12.66,5.65,19.1,8.22,3.7,1.48,6.28,.68,7.99-1.93Z"/>
      </g>
      <g id="blue_2">
        <path class="cls-1" d="M514.21,470.09c-6.57,.48-11.18,4.13-15.23,8.51-6.41,6.94-12.76,13.95-19.64,20.41-9.01,8.47-18.59,16.27-28.66,23.46-6.87,4.91-14,9.48-21.42,13.36-9.62,5.03-19.49,9.64-29.92,12.99-4.61,1.49-9.22,3.37-13.89,4.26-6.37,1.21-12.62,3.02-19.1,3.81-8.96,1.1-17.88,2.53-26.92,2.8-16.48,.48-32.72-1.67-48.89-4.56-7.46-1.33-14.98-2.64-22.09-5.17-9.62-3.42-19.45-6.28-28.71-10.81-13.04-6.38-25.47-13.69-36.99-22.51-5.16-3.95-10.05-8.22-14.89-12.57-7.87-7.07-14.6-15.13-21.45-23.13-4.78-5.57-8.6-11.92-14.35-16.74-6.61-5.54-13.59-7.6-21.82-4.48-6.54,2.48-13.96,9.49-12.19,18.49,.71,3.62,1.96,7.07,3.8,10.31,3.65,6.42,7.96,12.37,12.52,18.15,6.27,7.94,12.96,15.5,20.25,22.52,6.72,6.46,13.79,12.53,20.97,18.49,10.43,8.66,21.4,16.47,33.69,22.24,6.79,3.19,13.51,6.54,20.46,9.45,8.76,3.66,17.56,7.09,26.59,9.94,11.45,3.61,23.18,5.94,35.01,8.14,13.68,2.54,27.45,2.65,40.17,3.89,15.32-.97,29.63-1.54,43.73-4.5,6.03-1.26,12.09-2.28,18.03-3.99,5.09-1.47,10.06-3.36,15.15-4.68,10.15-2.63,19.52-7.19,29.22-10.93,4.09-1.58,7.8-4.14,11.84-5.89,6.77-2.93,13.1-6.7,19.26-10.62,13.88-8.84,26.79-18.95,38.4-30.76,8.55-8.7,16.96-17.48,24.43-27.1,5.21-6.71,6.73-14.14,1.84-21.64-4.43-6.79-10.09-11.79-19.19-11.12Zm4.98,25.14c-6.75,8.78-14.03,17.08-21.76,25.04-5.09,5.23-10.52,10.07-16.11,14.64-9.21,7.53-19.03,14.29-29.4,20.25-8.73,5.03-17.8,9.33-27.07,13.16-7.35,3.04-15.01,5.31-22.53,7.91-10.56,3.65-21.64,5.27-32.43,8.03-6.04,1.54-12.5,1.4-18.7,2.45-6.95,1.17-13.92,.37-18.92,.8-13.4,.46-24.68-1.1-36-2.61-10.48-1.4-20.52-4.53-30.7-7.02-6.61-1.62-12.99-4.48-19.44-6.89-8.21-3.08-16.04-6.9-23.87-10.74-7.55-3.71-14.79-8.04-22.01-12.38-11.1-6.67-21.16-14.71-30.76-23.32-8.9-7.98-16.66-17.09-24.64-25.97-3.61-4.01-6.81-8.41-9.96-12.81-3.93-5.5-2.37-9.19,3.45-12.3,3.24-1.74,6.45,.83,8.96,4.55,12.94,19.15,28.85,35.46,47.02,49.6,7.75,6.03,16.04,11.33,24.54,16.23,9.25,5.32,19.08,9.44,28.97,13.45,8.52,3.46,17.31,5.95,26.14,8.22,6.86,1.76,13.84,3.17,20.87,4.37,15.33,2.62,30.72,3.3,46.18,2.81,13.37-.42,26.72-1.53,39.71-4.96,12.5-3.3,24.94-6.76,36.84-12,16.24-7.15,31.56-15.82,46.14-25.95,12.43-8.64,23.68-18.54,33.93-29.6,4.28-4.63,8.23-9.54,13.56-13.07,2.67-1.77,5.08-1.67,7.37,.57,2.4,2.36,2.75,4.76,.61,7.54Z"/>
        <path class="cls-1" d="M133.32,428.59c-2.91-8.08-5.96-16.19-7.75-24.68-1.52-7.17-4.01-14.17-5.11-21.39-1.77-11.7-3.79-23.41-3.18-35.37,.37-7.4-.55-14.91,.33-22.23,1.49-12.46,3.84-24.77,7.33-36.93,4.35-15.17,10.6-29.42,18.13-43.15,4.94-9.01,10.65-17.6,16.87-25.8,6.29-8.28,12.95-16.24,20.28-23.67,8.68-8.8,17.79-17.02,27.77-24.33,6.82-5,14.02-9.41,21.43-13.4,8.33-4.49,16.83-8.69,25.83-11.76,8.76-2.99,17.46-6.14,26.51-8.25,11.7-2.73,23.83-3.22,35.38-6.48,12.98-3.66,17.18-11.74,14.43-24.41-1.59-7.29-8.75-11.83-16.88-12.28-10.53-.59-20.69,2.06-31.03,3.19-4.04,.44-7.99,1.76-11.96,2.76-6.49,1.65-13.07,3.03-19.4,5.15-6.41,2.15-12.67,4.84-19.03,7.11-7.76,2.76-14.89,6.73-22.16,10.35-7.3,3.64-14.15,8.24-21.05,12.68-10.5,6.76-20.17,14.56-29.26,23.02-8.02,7.47-15.6,15.42-22.66,23.84-7.67,9.15-14.64,18.79-21.13,28.81-11.3,17.47-19.95,36.17-26.8,55.79-3.9,11.18-6.55,22.69-8.64,34.26-2.67,14.77-4.22,29.73-4.19,44.82,.33,7.18,.24,14.41,1.09,21.53,1.36,11.28,2.86,22.55,5.5,33.65,1.38,5.79,2.45,11.64,4.51,17.26,2.26,6.17,4.55,12.34,6.53,18.61,3.32,10.54,11.85,18.49,24.79,15.43,8.3-1.96,17.2-13.95,13.53-24.13Zm-17.59,11.92c-3.27,1.12-6.09-.12-8.24-4.06-3.22-5.89-5.16-12.28-7.05-18.7-2.76-9.34-5.41-18.71-7.37-28.23-1.28-6.26-1.4-12.75-2.56-19.04-1.56-8.44-1.18-16.92-1.34-28.07-.71-9.16,1.74-20.69,2.99-32.36,1.45-13.5,5.75-26.2,9.89-38.85,3.63-11.1,8.63-21.81,13.89-32.36,8.41-16.87,18.42-32.66,30.1-47.42,9.17-11.59,19.5-22.14,30.78-31.61,10.58-8.88,22.01-16.7,33.98-23.69,9.14-5.33,18.79-9.62,28.49-13.67,4.8-2,9.95-3.55,14.97-5.21,4.16-1.37,8.35-3.17,12.53-3.96,7.75-1.46,15.23-4.07,23.07-5.08,5.59-.72,11.11-1.92,16.66-2.88,3.51-.61,6.95-.59,10.04,1.52,2.31,1.58,3.96,3.37,3.88,6.59-.09,3.45-1.86,5.42-4.55,6.89-1.83,1-3.9,1.59-5.94,1.56-10.45-.16-20.47,2.58-30.45,4.9-11.82,2.74-23.42,6.44-34.77,10.96-13.15,5.24-25.56,11.87-37.36,19.52-19.1,12.38-35.84,27.48-50.4,45.06-10.54,12.74-19.49,26.48-27.06,41.12-6.59,12.74-11.74,26.12-15.77,39.88-3.44,11.75-5.42,23.77-6.97,35.94-1.57,12.29-2.1,24.57-1.44,36.84,.81,15.07,2.77,30.07,6.54,44.71,2.29,8.87,5.41,17.52,8.19,26.26,.53,1.67,.88,3.34,.96,5.1,.21,4.3-1.54,6.92-5.71,8.35Z"/>
        <path class="cls-1" d="M582.69,326.7c-.54-5.29-.75-10.67-1.84-15.85-1.61-7.61-1.86-15.44-4.19-22.95-2.27-7.32-3.78-14.88-6.08-22.19-1.7-5.42-4.24-10.56-6.22-15.9-3.08-8.3-7.12-16.18-11.25-23.95-4.09-7.7-8.81-15.08-13.77-22.32-7.96-11.59-16.79-22.35-26.66-32.34-9.32-9.43-19.31-18.02-30.14-25.7-9.94-7.05-19.63-14.47-30.14-20.64-8.43-4.94-17.35-8.92-26.36-12.78-10.05-4.31-20.4-7.47-30.87-10.22-8.35-2.19-16.77-4.31-25.42-5.28-6.7-.75-13.04-.98-18.6,3.94-9.92,8.78-6.94,24.32,3.49,29.55,4.67,2.34,9.65,3.45,14.76,4.57,5.54,1.22,11.11,2.75,16.64,4.12,9.87,2.45,19.41,5.78,28.8,9.51,9.23,3.67,18.04,8.24,26.63,13.33,10.47,6.21,20.23,13.34,29.41,21.21,4.98,4.27,9.86,8.74,14.44,13.52,5.94,6.21,11.63,12.62,16.82,19.42,7.69,10.05,13.96,21.03,19.79,32.27,9.84,18.98,16.16,39.14,20.09,60.04,2.81,14.89,3.6,29.97,3.51,45.17-.07,10.64-2.42,20.91-3.89,31.27-1.44,10.16-3.61,20.43-7.47,30.1-2.75,6.87-4.79,13.99-8.13,20.67-4.03,8.05-4.28,21.25,4.96,27.35,6.51,4.31,14.6,5.68,21.46-.6,5.3-4.86,8.42-11,10.92-17.45,3.27-8.41,6.66-16.77,9.07-25.54,1.93-7.03,3.66-14.12,5.65-21.14,1.69-5.94,1.69-12.17,2.94-18.22,.82-3.98,1.52-8.14,1.59-12.26,.14-8.38,.04-16.77,.04-25.15,1.21-5.22,.55-10.4,.03-15.58Zm-10.17,44.63c-1.64,9.9-2.76,19.87-5.23,29.66-2.67,10.56-5.89,20.92-9.69,31.09-2.41,6.44-5.37,12.69-8.36,18.88-2.02,4.19-5.78,5.05-9.87,2.75-5.53-3.11-6.38-5.34-4.56-11.34,1.91-6.28,4.65-12.24,7.03-18.33,2.82-7.22,5.28-14.56,7.18-22.09,1.08-4.3,2.72-8.47,3.64-12.79,1.08-5.06,2.12-10.22,2.33-15.36,.41-10.23,2.32-20.38,1.5-30.66-1.03-12.85-1.04-25.77-4.13-38.44-1.29-5.31-2.56-10.69-3.42-16.16-.71-4.52-2.73-8.86-4.44-13.17-2.86-7.18-5.71-14.38-8.96-21.39-6.14-13.24-13.02-26.05-21.3-38.16-5.76-8.43-12.02-16.43-18.82-23.93-3.5-3.86-7.05-7.81-11.21-11.15-4.88-3.92-9.25-8.46-14.28-12.24-11.3-8.51-22.99-16.25-35.77-22.55-11.24-5.54-22.66-10.47-34.55-14.14-9.05-2.79-18.04-6-27.67-6.77-3.92-.31-7.76-1.86-11.57-3.07-2.9-.92-4.26-4.76-3.47-7.72,1.74-6.57,5.08-7.62,10.79-7.32,7.48,.39,14.69,2.25,21.9,4.14,4.81,1.26,9.68,2.31,14.43,3.75,4.83,1.46,9.57,3.2,14.3,4.96,7.96,2.96,15.52,6.85,23.26,10.33,5.64,2.54,10.6,6.28,15.8,9.56,19.74,12.46,37.68,27.16,53.32,44.48,8.13,9,15.57,18.61,22.24,28.82,4.67,7.15,9.14,14.41,13.1,21.94,4.72,8.96,9.49,18,12.23,27.77,3.2,11.45,7.88,22.4,10.32,34.13,3.38,16.24,5.16,32.54,5.01,49.67-.22,7.91,.32,16.43-1.07,24.88Z"/>
      </g>
      <path id="blue_1" class="cls-1" d="M135.91,345.48c.28-8.57,.6-17.12,1.79-25.67,1.21-8.72,3.19-17.25,5.2-25.78,1-4.24,2.68-8.31,4.12-12.44,1.56-4.47,3.18-8.92,5.07-13.24,3.89-8.87,8.47-17.37,13.65-25.6,5.74-9.11,11.99-17.84,19.06-25.88,6.66-7.57,13.92-14.62,21.67-21.15,13.22-11.15,27.69-20.3,43.28-27.69,8.2-3.89,16.69-7.03,25.43-9.52,9.78-2.79,19.77-4.29,29.79-5.93,13.58-2.23,27.13-2.29,40.67-.96,7.27,.71,14.53,2.2,21.77,3.44,10.09,1.73,19.5,5.35,29.15,8.32,6.59,2.02,12.78,5.12,18.97,8.18,10.08,4.99,19.5,10.99,28.77,17.35,12.43,8.53,23.48,18.56,33.59,29.61,10.34,11.3,19.18,23.79,26.36,37.31,5.66,10.65,10.32,21.74,13.94,33.33,2.99,9.59,4.49,19.37,6.42,29.14,2.27,11.47,2.28,22.94,2.09,34.44-.1,5.7-1.14,11.4-1.85,17.08-.67,5.32-1.86,10.58-2.13,16.01-.23,4.67-1.95,9.33-3.42,13.87-2.19,6.74-4.38,13.51-7.25,19.97-2.3,5.18-4.9,10.27-7.5,15.33-3.04,5.92-6.41,11.68-9.92,17.34-4.11,6.62-8.6,12.97-13.43,19.14-6.38,8.15-13.53,15.49-21.01,22.55-10.1,9.54-21.51,17.43-33.51,24.28-7.83,4.46-15.94,8.57-24.65,11.39-4.58,1.48-9,3.6-13.66,4.91-6.35,1.79-12.85,2.97-19.26,4.47-9.61,2.25-19.34,2.51-29.06,3.37-6.35,.56-12.62-.25-18.92-.39-12.02-.27-23.69-2.81-35.33-5.3-7.34-1.57-14.37-4.5-21.5-6.92-8.72-2.96-16.88-6.94-25.02-11.08-7.88-4.01-15.39-8.61-22.64-13.69-8.21-5.76-15.83-12.21-22.81-19.37-4.54-4.65-8.93-9.45-13.11-14.47-6.28-7.53-11.74-15.56-16.8-23.88-4.7-7.73-9.05-15.74-12.24-24.17-2.69-7.11-5.72-14.11-7.68-21.55-2.14-8.17-4.16-16.36-5.58-24.65-1.77-10.39-2.66-20.91-2.52-31.49Zm195.24,133.93c4.91,.05,9.75-.78,14.6-1.11,12.93-.89,24.97-4.6,36.87-9.32,11.1-4.4,21.42-10.21,30.8-17.44,14.07-10.84,25.98-23.81,35.39-39,8.35-13.48,13.94-27.96,16.43-43.65,2.47-15.54,1.84-31.06-.66-46.46-1.45-8.95-4.67-17.49-7.82-26.04-2.73-7.42-6.38-14.34-10.44-20.99-6.33-10.33-13.78-19.81-22.66-28.23-8.32-7.9-17.55-14.4-27.47-19.89-7.69-4.25-15.84-7.64-24.26-10.35-8.07-2.59-16.42-4.16-24.74-5.06-12.08-1.31-24.2-.94-36.38,.89-12.92,1.94-25.1,5.74-36.75,11.25-17.67,8.35-32.87,20.22-45.33,35.22-8.5,10.23-15.76,21.35-21.19,33.68-6,13.6-9.67,27.71-10.89,42.43-1.38,16.69,.53,33.12,5.22,49.2,2.12,7.25,4.98,14.28,8.45,20.92,4.25,8.14,9.35,15.83,15.07,23.08,7.45,9.44,16.19,17.52,25.89,24.56,9.44,6.85,19.53,12.59,30.49,16.73,6.35,2.4,12.72,4.96,19.35,6.22,9.9,1.88,19.9,3.39,30.04,3.37Z"/>
      <rect class="cls-2" width="653" height="653"/>
    </g>
  </g>
</svg>