<?xml version="1.0" encoding="UTF-8"?>
<svg id="Capa_2" data-name="Capa 2" xmlns="http://www.w3.org/2000/svg" viewBox="0 0 1532.83 805.77">
  <defs>
    <style>
      .cls-1 {
        fill: #fff;
      }
    </style>
  </defs>
  <g id="Capa_3" data-name="Capa 3">
    <g>
      <g>
        <path class="cls-1" d="M1028.89,722.27h-23l-51.97-233.98h31.84l31.62,152.48,31.62-152.48h32.06l-52.19,233.98Z"/>
        <path class="cls-1" d="M1094.56,722.27v-233.98h30.74v233.98h-30.74Z"/>
        <path class="cls-1" d="M1216.62,529.04v193.23h-30.74v-193.23h-41.13v-40.75h113v40.75h-41.13Z"/>
        <path class="cls-1" d="M1277.21,722.27v-233.98h103.71v40.75h-72.97v54.88h62.14v40.75h-62.14v56.85h72.97v40.75h-103.71Z"/>
        <path class="cls-1" d="M1497.01,722.27l-40.47-106.48-20.34,36.15v70.33h-30.74v-233.98h30.74v101.88l55.5-101.88h37.37l-52.19,93,55.95,140.98h-35.82Z"/>
      </g>
      <g>
        <path class="cls-1" d="M976.29,471.21c-2.47,3.82-5.73,5.91-9.66,5.91s-6.89-2.02-9.32-5.62c-3.49-5.19-3.4-11.61-3.4-20.48s-.1-15.29,3.4-20.48c2.43-3.61,5.43-5.62,9.32-5.62,4.8,0,7.47,1.95,10.58,6.56l-4.56,6.78c-1.94-2.88-3.35-4.4-6.02-4.4-1.84,0-3.35,1.08-4.32,2.74-1.31,2.16-1.65,4.54-1.65,14.42s.34,12.33,1.65,14.49c.97,1.66,2.48,2.67,4.32,2.67,2.04,0,3.49-1.08,4.61-2.88s1.5-4.47,1.5-7v-1.8h-6.11v-8.37h12.86v7.36c0,7.43-.78,11.97-3.2,15.72Z"/>
        <path class="cls-1" d="M1003.13,476.7l-6.75-20.48h-4.85v20.48h-6.75v-51.34h13.54c7.04,0,11.21,7.14,11.21,15.72,0,7.21-2.96,11.68-6.31,13.49l7.72,22.14h-7.81Zm-5.24-42.4h-6.36v13.56h6.36c2.96,0,4.9-2.81,4.9-6.78s-1.94-6.78-4.9-6.78Z"/>
        <path class="cls-1" d="M1027.48,477.13c-7.08,0-12.71-7.14-12.71-18.03v-33.75h6.75v33.39c0,5.91,2.33,9.45,5.97,9.45s6.02-3.53,6.02-9.45v-33.39h6.7v33.75c0,10.89-5.63,18.03-12.71,18.03Z"/>
        <path class="cls-1" d="M1059.9,457.37h-6.65v19.33h-6.75v-51.34h13.39c7.13,0,11.4,7.28,11.4,16.01s-4.27,16.01-11.4,16.01Zm-.34-23.08h-6.31v14.06h6.31c3.06,0,5-2.81,5-6.99s-1.94-7.07-5-7.07Z"/>
        <path class="cls-1" d="M1096.67,471.5c-2.43,3.61-5.39,5.62-9.32,5.62s-6.94-2.02-9.36-5.62c-3.49-5.19-3.4-11.61-3.4-20.48s-.1-15.29,3.4-20.48c2.43-3.61,5.43-5.62,9.36-5.62s6.89,2.02,9.32,5.62c3.49,5.19,3.45,11.61,3.45,20.48s.05,15.29-3.45,20.48Zm-5-34.9c-.97-1.66-2.47-2.74-4.32-2.74s-3.4,1.08-4.37,2.74c-1.31,2.16-1.65,4.54-1.65,14.42s.34,12.26,1.65,14.42c.97,1.66,2.52,2.74,4.37,2.74s3.35-1.08,4.32-2.74c1.31-2.16,1.7-4.54,1.7-14.42s-.39-12.26-1.7-14.42Z"/>
      </g>
    </g>
    <g>
      <path class="cls-1" d="M434.01,805.77c-18.65-1.82-38.82-1.97-58.88-5.7-17.34-3.22-34.53-6.64-51.33-11.93-13.24-4.17-26.14-9.2-38.98-14.57-10.2-4.26-20.04-9.17-30-13.85-18-8.45-34.1-19.9-49.38-32.6-10.52-8.74-20.88-17.64-30.73-27.11-10.7-10.28-20.5-21.37-29.69-33.01-6.69-8.47-13.01-17.2-18.36-26.61-2.7-4.75-4.52-9.81-5.57-15.12-2.59-13.18,8.29-23.47,17.87-27.1,12.06-4.57,22.29-1.56,31.98,6.57,8.44,7.07,14.03,16.38,21.04,24.55,10.05,11.72,19.91,23.54,31.45,33.9,7.09,6.37,14.26,12.63,21.82,18.42,16.89,12.93,35.1,23.65,54.22,33,13.57,6.64,27.98,10.83,42.09,15.85,10.41,3.7,21.44,5.62,32.38,7.58,23.71,4.24,47.51,7.39,71.67,6.69,13.25-.39,26.33-2.49,39.47-4.1,9.5-1.17,18.66-3.82,28-5.59,6.85-1.3,13.6-4.07,20.36-6.25,15.29-4.92,29.77-11.68,43.86-19.05,10.88-5.69,21.33-12.39,31.4-19.58,14.77-10.55,28.81-21.99,42.02-34.4,10.09-9.48,19.39-19.75,28.8-29.92,5.93-6.42,12.7-11.77,22.33-12.48,13.35-.98,21.64,6.36,28.14,16.31,7.17,10.98,4.94,21.88-2.69,31.72-10.95,14.11-23.28,26.98-35.81,39.73-17.03,17.32-35.95,32.13-56.3,45.09-9.02,5.75-18.31,11.27-28.23,15.57-5.92,2.57-11.35,6.32-17.35,8.64-14.21,5.49-27.96,12.16-42.84,16.02-7.46,1.94-14.75,4.71-22.21,6.86-8.71,2.51-17.59,4-26.43,5.85-20.67,4.33-41.66,5.18-64.11,6.59Zm1.13-20.24c7.33-.63,17.55,.54,27.73-1.18,9.09-1.53,18.55-1.33,27.41-3.59,15.82-4.04,32.05-6.42,47.54-11.77,11.03-3.81,22.27-7.15,33.03-11.6,13.59-5.62,26.88-11.92,39.69-19.29,15.19-8.75,29.59-18.66,43.09-29.69,8.19-6.69,16.16-13.78,23.62-21.46,11.33-11.67,22.01-23.84,31.9-36.71,3.13-4.08,2.63-7.6-.9-11.05-3.36-3.29-6.89-3.43-10.8-.83-7.81,5.18-13.6,12.38-19.88,19.16-15.02,16.22-31.52,30.73-49.74,43.4-21.37,14.86-43.82,27.56-67.63,38.05-17.44,7.68-35.69,12.76-54.01,17.59-19.04,5.02-38.61,6.65-58.21,7.27-22.66,.72-45.22-.27-67.7-4.12-10.31-1.76-20.54-3.83-30.6-6.41-12.95-3.32-25.84-6.97-38.33-12.04-14.5-5.89-28.92-11.92-42.47-19.72-12.46-7.18-24.62-14.95-35.98-23.79-26.64-20.73-49.96-44.65-68.93-72.72-3.69-5.45-8.38-9.22-13.13-6.67-8.52,4.56-10.81,9.98-5.05,18.03,4.61,6.45,9.31,12.9,14.6,18.79,11.7,13.01,23.07,26.36,36.12,38.07,14.07,12.63,28.83,24.4,45.1,34.18,10.58,6.36,21.19,12.71,32.26,18.14,11.47,5.63,22.95,11.24,34.99,15.75,9.45,3.54,18.81,7.74,28.49,10.11,14.92,3.65,29.64,8.24,45.01,10.29,16.61,2.22,33.14,4.49,52.78,3.83Z"/>
      <path class="cls-1" d="M61.43,431.81c-.03-22.11,2.23-44.05,6.15-65.7,3.07-16.96,6.95-33.82,12.67-50.22,10.04-28.76,22.72-56.17,39.28-81.79,9.5-14.69,19.73-28.83,30.97-42.24,10.35-12.34,21.46-24,33.22-34.94,13.33-12.41,27.5-23.84,42.9-33.75,10.12-6.51,20.16-13.25,30.86-18.59,10.66-5.32,21.12-11.13,32.49-15.18,9.33-3.32,18.5-7.27,27.9-10.42,9.28-3.11,18.93-5.14,28.44-7.55,5.82-1.48,11.62-3.4,17.54-4.05,15.14-1.66,30.05-5.54,45.48-4.68,11.92,.67,22.43,7.32,24.75,18.01,4.04,18.58-2.12,30.41-21.15,35.78-16.94,4.78-34.71,5.5-51.87,9.5-13.27,3.1-26.02,7.7-38.86,12.09-13.2,4.51-25.66,10.66-37.87,17.24-10.87,5.86-21.41,12.32-31.42,19.65-14.62,10.71-27.98,22.77-40.7,35.67-10.74,10.9-20.51,22.56-29.73,34.7-9.12,12.01-17.49,24.61-24.73,37.82-11.04,20.13-20.2,41.03-26.58,63.26-5.12,17.82-8.55,35.87-10.74,54.14-1.29,10.72,.06,21.74-.48,32.58-.88,17.53,2.07,34.7,4.67,51.85,1.61,10.58,5.26,20.84,7.48,31.35,2.63,12.44,7.1,24.34,11.37,36.18,5.38,14.92-7.67,32.5-19.84,35.37-18.97,4.48-31.47-7.17-36.34-22.62-2.9-9.19-6.25-18.23-9.57-27.28-3.02-8.24-4.59-16.81-6.61-25.31-3.87-16.26-6.07-32.79-8.07-49.33-1.26-10.43-1.12-21.04-1.6-31.57Zm17.32-5.6c.23,16.36-.33,28.78,1.96,41.15,1.7,9.22,1.87,18.74,3.75,27.92,2.86,13.96,6.76,27.7,10.8,41.39,2.78,9.41,5.61,18.78,10.34,27.41,3.16,5.77,7.3,7.59,12.08,5.95,6.1-2.09,8.67-5.94,8.37-12.24-.12-2.58-.64-5.03-1.41-7.47-4.07-12.81-8.65-25.5-12.01-38.5-5.54-21.46-8.41-43.46-9.59-65.55-.97-17.99-.19-35.99,2.11-54,2.28-17.84,5.18-35.46,10.22-52.68,5.91-20.17,13.46-39.79,23.11-58.46,11.09-21.45,24.21-41.6,39.67-60.27,21.33-25.78,45.88-47.92,73.88-66.06,17.31-11.21,35.49-20.93,54.77-28.61,16.63-6.63,33.63-12.05,50.97-16.07,14.64-3.4,29.33-7.41,44.64-7.18,2.99,.05,6.04-.82,8.71-2.29,3.94-2.16,6.54-5.04,6.67-10.1,.12-4.73-2.29-7.36-5.68-9.67-4.53-3.09-9.57-3.13-14.72-2.23-8.14,1.42-16.24,3.17-24.43,4.23-11.5,1.48-22.46,5.3-33.83,7.45-6.13,1.16-12.28,3.79-18.37,5.8-7.35,2.43-14.9,4.69-21.94,7.63-14.22,5.94-28.37,12.23-41.77,20.05-17.55,10.24-34.31,21.7-49.82,34.72-16.53,13.89-31.68,29.36-45.12,46.34-17.12,21.63-31.79,44.78-44.12,69.51-7.71,15.45-15.04,31.17-20.37,47.43-6.07,18.55-12.37,37.16-14.49,56.95-1.84,17.11-5.43,34.02-4.39,47.45Z"/>
      <path class="cls-1" d="M802.19,426.02c0,12.29,.15,24.59-.06,36.88-.1,6.04-1.12,12.14-2.33,17.97-1.83,8.87-1.84,18-4.31,26.71-2.92,10.29-5.46,20.68-8.29,30.98-3.53,12.86-8.5,25.11-13.29,37.44-3.67,9.46-8.24,18.45-16.01,25.58-10.05,9.21-21.91,7.19-31.46,.88-13.53-8.95-13.17-28.29-7.27-40.09,4.89-9.78,7.89-20.22,11.92-30.3,5.66-14.18,8.84-29.23,10.96-44.13,2.16-15.18,5.61-30.23,5.7-45.84,.14-22.28-1.04-44.38-5.15-66.21-5.77-30.64-15.03-60.2-29.46-88.02-8.55-16.48-17.75-32.57-29.02-47.3-7.61-9.96-15.96-19.36-24.66-28.46-6.71-7.02-13.86-13.57-21.16-19.82-13.47-11.53-27.77-21.99-43.12-31.09-12.59-7.47-25.51-14.17-39.04-19.54-13.76-5.47-27.74-10.35-42.22-13.94-8.11-2.01-16.26-4.25-24.39-6.03-7.49-1.64-14.78-3.27-21.63-6.7-15.29-7.67-19.66-30.45-5.12-43.32,8.15-7.21,17.44-6.88,27.27-5.78,12.68,1.42,25.02,4.52,37.26,7.73,15.36,4.03,30.53,8.67,45.26,14.98,13.21,5.66,26.29,11.49,38.64,18.73,15.41,9.04,29.62,19.93,44.19,30.26,15.88,11.26,30.52,23.85,44.19,37.68,14.46,14.64,27.41,30.41,39.08,47.4,7.28,10.61,14.2,21.43,20.19,32.72,6.04,11.39,11.97,22.94,16.49,35.11,2.9,7.82,6.62,15.37,9.12,23.31,3.37,10.72,5.59,21.79,8.92,32.52,3.42,11,3.79,22.48,6.15,33.64,1.6,7.6,1.91,15.47,2.7,23.23,.77,7.59,1.73,15.18-.04,22.84Zm-13.29,6.12c.23-25.11-2.39-49.01-7.34-72.81-3.58-17.2-10.44-33.25-15.13-50.03-4.01-14.33-11.01-27.58-17.93-40.71-5.81-11.04-12.36-21.68-19.21-32.16-9.78-14.96-20.68-29.05-32.61-42.25-22.94-25.39-49.24-46.94-78.17-65.2-7.62-4.81-14.88-10.29-23.16-14.01-11.34-5.1-22.42-10.81-34.1-15.14-6.93-2.57-13.89-5.13-20.97-7.26-6.97-2.11-14.11-3.65-21.16-5.5-10.56-2.76-21.13-5.49-32.1-6.06-8.38-.44-13.27,1.1-15.82,10.73-1.15,4.33,.85,9.96,5.09,11.32,5.58,1.78,11.22,4.05,16.96,4.51,14.12,1.12,27.3,5.83,40.56,9.92,17.44,5.38,34.18,12.61,50.65,20.73,18.74,9.24,35.88,20.58,52.44,33.05,7.36,5.54,13.78,12.2,20.93,17.94,6.11,4.9,11.31,10.7,16.44,16.35,9.97,11,19.14,22.72,27.59,35.08,12.14,17.76,22.23,36.53,31.23,55.94,4.76,10.28,8.95,20.83,13.13,31.36,2.51,6.32,5.48,12.69,6.51,19.31,1.25,8.01,3.11,15.9,5.01,23.68,4.53,18.58,4.55,37.53,6.06,56.36,1.21,15.06-1.6,29.95-2.2,44.94-.3,7.55-1.84,15.1-3.41,22.52-1.35,6.34-3.75,12.45-5.34,18.75-2.78,11.04-6.39,21.79-10.53,32.38-3.49,8.94-7.51,17.67-10.31,26.87-2.68,8.8-1.42,12.07,6.68,16.63,6,3.38,11.51,2.11,14.47-4.03,4.39-9.09,8.73-18.24,12.26-27.68,5.57-14.91,10.3-30.1,14.21-45.58,3.62-14.34,5.27-28.96,7.67-43.48,2.05-12.38,1.24-24.87,1.57-36.47Z"/>
      <g>
        <path class="cls-1" d="M147.26,430.7c.41-12.56,.89-25.1,2.63-37.64,1.78-12.79,4.67-25.29,7.62-37.79,1.47-6.21,3.93-12.19,6.04-18.23,2.28-6.56,4.66-13.08,7.44-19.41,5.7-13,12.41-25.46,20.01-37.52,8.42-13.36,17.57-26.16,27.95-37.95,9.77-11.1,20.41-21.43,31.77-31.01,19.39-16.34,40.6-29.75,63.45-40.6,12.02-5.7,24.47-10.3,37.28-13.96,14.34-4.09,28.98-6.29,43.67-8.7,19.91-3.26,39.77-3.35,59.62-1.41,10.66,1.05,21.3,3.22,31.91,5.04,14.79,2.53,28.59,7.84,42.73,12.19,9.66,2.97,18.73,7.5,27.81,11.99,14.78,7.32,28.59,16.12,42.18,25.44,18.22,12.5,34.42,27.21,49.24,43.4,15.15,16.56,28.11,34.87,38.64,54.7,8.3,15.61,15.13,31.86,20.44,48.87,4.39,14.06,6.59,28.39,9.42,42.72,3.32,16.82,3.35,33.62,3.06,50.49-.14,8.35-1.67,16.71-2.72,25.04-.98,7.79-2.72,15.51-3.12,23.47-.34,6.85-2.85,13.68-5.01,20.33-3.21,9.87-6.43,19.8-10.63,29.28-3.37,7.6-7.19,15.06-11,22.47-4.46,8.68-9.4,17.13-14.55,25.42-6.03,9.71-12.61,19.01-19.68,28.06-9.35,11.95-19.84,22.7-30.8,33.06-14.81,13.99-31.53,25.56-49.13,35.6-11.47,6.54-23.37,12.56-36.13,16.69-6.72,2.17-13.19,5.27-20.02,7.19-9.3,2.62-18.84,4.35-28.24,6.55-14.09,3.29-28.36,3.68-42.61,4.94-9.32,.82-18.5-.36-27.74-.57-17.62-.4-34.73-4.12-51.8-7.76-10.76-2.3-21.06-6.59-31.52-10.14-12.78-4.33-24.74-10.17-36.67-16.24-11.55-5.88-22.56-12.63-33.19-20.07-12.04-8.44-23.2-17.9-33.44-28.4-6.65-6.82-13.09-13.85-19.22-21.21-9.2-11.04-17.22-22.81-24.63-35-6.89-11.33-13.27-23.07-17.95-35.43-3.95-10.42-8.39-20.69-11.25-31.59-3.14-11.97-6.1-23.98-8.18-36.14-2.6-15.23-3.91-30.66-3.7-46.17Zm286.21,196.35c7.2,.07,14.3-1.14,21.4-1.63,18.95-1.3,36.6-6.74,54.05-13.67,16.27-6.45,31.41-14.97,45.15-25.56,20.63-15.89,38.09-34.91,51.87-57.17,12.24-19.77,20.43-40.99,24.09-64,3.63-22.78,2.69-45.53-.96-68.1-2.12-13.11-6.85-25.65-11.47-38.17-4.01-10.87-9.35-21.03-15.31-30.76-9.28-15.14-20.21-29.03-33.22-41.39-12.19-11.58-25.73-21.12-40.27-29.16-11.27-6.23-23.23-11.21-35.57-15.17-11.84-3.8-24.07-6.1-36.26-7.42-17.71-1.92-35.48-1.38-53.34,1.3-18.94,2.84-36.8,8.42-53.88,16.49-25.9,12.23-48.18,29.64-66.45,51.63-12.46,14.99-23.1,31.3-31.07,49.37-8.79,19.94-14.18,40.63-15.97,62.2-2.03,24.46,.77,48.56,7.66,72.12,3.1,10.62,7.3,20.93,12.38,30.67,6.22,11.93,13.71,23.2,22.1,33.83,10.93,13.84,23.73,25.69,37.95,36.01,13.84,10.05,28.62,18.46,44.69,24.52,9.32,3.52,18.65,7.27,28.37,9.12,14.51,2.76,29.17,4.98,44.03,4.94Z"/>
        <path class="cls-1" d="M12.09,414.91c6.32-1.07,9.4,2.55,9.98,10.38,1.4,19.1,1.32,38.34,3.27,57.37,1.34,13.03,3.48,26.08,6.71,38.89,3.23,12.85,5.99,25.81,10.3,38.37,4.81,14.03,9.93,27.89,15.87,41.53,6.15,14.1,13.17,27.64,20.72,40.97,7.6,13.41,16.29,26.1,25.65,38.32,14.66,19.16,30.75,37.03,48.96,52.91,11.94,10.41,24.07,20.57,37.28,29.44,8.4,5.65,16.02,12.5,23.78,19.06,4.46,3.77,5.2,7.66,3.01,11.67-3.43,6.27-5.92,7.15-12.79,5.14-6.23-1.81-11.28-5.54-16.46-9.18-28.65-20.1-55.11-42.76-78.35-68.89-14.89-16.74-28.58-34.49-40.69-53.46-6.93-10.85-13.57-21.88-19.52-33.22-7.17-13.69-13.47-27.84-19.18-42.28-3.77-9.53-6.68-19.26-9.82-28.95-4.54-13.99-8.29-28.18-10.24-42.83-.9-6.76-2.93-13.36-3.97-20.1-1.98-12.86-3.24-25.85-5.52-38.65-2.08-11.67-.61-23.18,.08-34.75,.46-7.62,4.28-11.64,10.93-11.72Z"/>
        <path class="cls-1" d="M841.62,417.26c-6.31-1.15-9.43,2.44-10.1,10.26-1.63,19.09-1.77,38.32-3.95,57.33-1.49,13.01-3.79,26.04-7.16,38.81-3.39,12.81-6.3,25.74-10.75,38.25-4.97,13.97-10.26,27.77-16.36,41.34-6.31,14.03-13.49,27.48-21.2,40.72-7.75,13.32-16.6,25.9-26.1,38.02-14.89,18.99-31.19,36.67-49.58,52.33-12.06,10.27-24.31,20.28-37.62,29-8.47,5.55-16.17,12.31-24.01,18.78-4.51,3.72-5.29,7.6-3.14,11.63,3.36,6.31,5.84,7.21,12.73,5.29,6.25-1.74,11.35-5.41,16.57-8.99,28.88-19.76,55.6-42.11,79.16-67.97,15.08-16.56,28.98-34.15,41.32-52.98,7.06-10.77,13.83-21.72,19.91-32.99,7.33-13.6,13.8-27.68,19.67-42.05,3.88-9.48,6.9-19.18,10.16-28.83,4.7-13.94,8.62-28.08,10.74-42.71,.98-6.75,3.09-13.32,4.21-20.06,2.13-12.84,3.54-25.81,5.98-38.58,2.22-11.65,.88-23.17,.33-34.75-.37-7.63-4.14-11.69-10.79-11.85Z"/>
        <path class="cls-1" d="M219.61,69.68c2.02,6.09,6.66,7.1,13.85,3.94,17.52-7.73,34.47-16.83,52.19-24.05,12.13-4.94,24.66-9.17,37.48-12.34,12.86-3.18,25.61-6.83,38.71-8.93,14.64-2.34,29.29-4.33,44.12-5.48,15.34-1.19,30.59-1.35,45.9-.94,15.4,.41,30.69,2.13,45.88,4.65,23.8,3.95,47.14,9.76,69.7,18.38,14.8,5.65,29.46,11.59,43.5,19.09,8.93,4.77,18.56,8.28,28,12.05,5.43,2.17,9.21,.99,11.71-2.82,3.92-5.98,3.53-8.58-1.46-13.71-4.53-4.65-10.19-7.36-15.84-10.23-31.19-15.86-63.63-28.58-97.62-36.83-21.77-5.29-43.87-9.03-66.31-10.82C456.59,.61,443.74-.07,430.93,0c-15.45,.09-30.91,1.18-46.33,2.92-10.18,1.15-20.14,3.15-30.17,4.92-14.49,2.56-28.77,5.91-42.62,11.07-6.39,2.38-13.17,3.69-19.61,5.93-12.29,4.29-24.34,9.28-36.72,13.27-11.28,3.64-20.75,10.34-30.65,16.39-6.52,3.98-8.27,9.24-5.22,15.16Z"/>
      </g>
    </g>
  </g>
</svg>